<svg width="16" height="16" viewBox="0 0 16 16" fill="none" xmlns="http://www.w3.org/2000/svg">
<path d="M14.3327 5.65867V11.25C14.3327 12.2167 13.5493 13 12.5827 13H3.41602C2.95189 13 2.50677 12.8156 2.17858 12.4874C1.85039 12.1592 1.66602 11.7141 1.66602 11.25V5.65867L7.79868 9.032C7.92368 9.10067 8.07535 9.10067 8.20002 9.032L14.3327 5.65833V5.65867ZM12.5827 3C13.0395 3.00004 13.4782 3.17872 13.8051 3.49786C14.1319 3.817 14.3211 4.2513 14.332 4.708L7.99935 8.19133L1.66668 4.70767L1.66735 4.67767C1.68602 4.22642 1.87842 3.79986 2.20432 3.48719C2.53022 3.17452 2.96438 2.99996 3.41602 3H12.5827Z" fill="black"/>
</svg>
