<svg width="16" height="16" viewBox="0 0 16 16" fill="none" xmlns="http://www.w3.org/2000/svg">
<g clip-path="url(#clip0_2079_16298)">
<path d="M11.6471 9.58803C11.4491 9.48869 10.4751 9.01003 10.2938 8.94336C10.1118 8.87736 9.97978 8.84469 9.84711 9.04336C9.71578 9.24136 9.33578 9.68736 9.22044 9.81936C9.10511 9.95203 8.98911 9.96803 8.79111 9.86936C8.59311 9.76936 7.95444 9.56069 7.19778 8.88603C6.60911 8.36069 6.21111 7.71203 6.09578 7.51336C5.98044 7.31536 6.08378 7.20803 6.18244 7.10936C6.27178 7.02069 6.38111 6.87803 6.47978 6.76269C6.57911 6.64669 6.61178 6.56403 6.67844 6.43136C6.74444 6.29936 6.71178 6.18403 6.66178 6.08469C6.61178 5.98536 6.21578 5.01003 6.05111 4.61336C5.88978 4.22736 5.72644 4.28003 5.60511 4.27336C5.47851 4.26832 5.35181 4.2661 5.22511 4.26669C5.09311 4.26669 4.87844 4.31603 4.69711 4.51469C4.51578 4.71269 4.00378 5.19203 4.00378 6.16736C4.00378 7.14203 4.71378 8.08403 4.81244 8.21669C4.91178 8.34869 6.20978 10.35 8.19711 11.208C8.66978 11.412 9.03844 11.534 9.32644 11.6247C9.80111 11.776 10.2331 11.7547 10.5738 11.7034C10.9544 11.6467 11.7458 11.224 11.9111 10.7614C12.0764 10.2987 12.0764 9.90203 12.0264 9.81936C11.9771 9.73669 11.8451 9.68736 11.6464 9.58803M8.03244 14.5234H8.02978C6.84962 14.5235 5.69116 14.2062 4.67578 13.6047L4.43511 13.462L1.94111 14.1167L2.60644 11.6847L2.44978 11.4354C1.79007 10.3849 1.44107 9.16915 1.44311 7.92869C1.44378 4.29536 4.40044 1.33936 8.03511 1.33936C9.79511 1.33936 11.4498 2.02603 12.6938 3.27136C13.3076 3.88244 13.7941 4.60918 14.1251 5.40952C14.4562 6.20987 14.6252 7.06792 14.6224 7.93403C14.6204 11.5674 11.6644 14.5234 8.03244 14.5234ZM13.6411 2.32536C12.9066 1.58598 12.0326 0.999719 11.0698 0.600561C10.1071 0.201403 9.07467 -0.0027175 8.03244 2.73184e-05C3.66244 2.73184e-05 0.105776 3.55669 0.103776 7.92803C0.103776 9.32536 0.468443 10.6894 1.16244 11.8914L0.0371094 16L4.24044 14.8974C5.40284 15.5306 6.7054 15.8625 8.02911 15.8627H8.03244C12.4018 15.8627 15.9591 12.306 15.9611 7.93403C15.9643 6.89221 15.761 5.86009 15.3627 4.89738C14.9645 3.93467 14.3794 3.06047 13.6411 2.32536Z" fill="black"/>
</g>
<defs>
<clipPath id="clip0_2079_16298">
<rect width="16" height="16" fill="white"/>
</clipPath>
</defs>
</svg>
