<svg width="124" height="124" fill="none" xmlns="http://www.w3.org/2000/svg"><path fill="#fff" d="M0 0h124v124H0z"/><path d="M17.41 30.098c-.941.761-2.41 1.764-2.41 1.949v10.228c0 2.922 1.014 1.573 1.205.974m1.205-13.15L36.692 15M17.41 30.098h11.087M36.692 15l54.954 15.098M36.692 15l4.339 15.098M36.692 15l-8.195 15.098m63.15 0h12.05c1.929 0 1.929 0 .965.975m-13.016-.975v14.125m0-14.125L79.113 44.223m12.533-14.125H79.113m12.533 14.125h12.051s1.929 0 1.929-1.948V32.047c0-1.949-.482-2.436-.964-.974m-13.016 13.15l13.016-13.15m-13.016 13.15H85.38m-6.266 0V30.098m0 14.125H66.579m12.534 0h6.266m-6.266-14.125L66.579 44.223m12.534-14.125H66.579m0 14.125V30.098m0 14.125H54.046M66.58 30.098L54.046 44.223M66.58 30.098H54.046m0 14.125V30.098m0 14.125h-3.374m3.374-14.125L41.031 44.223m13.015-14.125H41.031m0 14.125V30.098m0 14.125H28.497m12.534 0v24.84m0-24.84h9.64m-9.64-14.125L28.497 44.223m12.534-14.125H28.497m0 14.125H17.41c-2.41 0-2.41 0-1.205-.974m12.292.974V30.098m0 14.125v24.84m0-38.965l-12.292 13.15M28.98 108.27c-.189-.285-.483 1.705-.483-.73V94.876m.483 13.393c-.965.731.142.731.482.731h10.605c.964 0 .964-1.461.964-1.461V94.876M28.98 108.269l12.05-13.393m0 0H28.498m12.534 0v-13.15m-12.534 13.15l12.534-13.15m-12.534 13.15v-13.15m12.534 0H28.497m12.534 0V69.061M28.497 81.725l12.534-12.663M28.497 81.725V69.062m12.534 0H28.497m12.534 0h8.195c1.446 0 1.446-1.461 1.446-1.461V44.223m34.707 0v8.28m0 0c-2.41 0-3.64 2.013-3.374 3.896.226 1.598 1.446 2.922 3.374 2.922m0-6.818c2.652 0 4.018 2.435 3.375 4.383-.408 1.236-1.446 2.435-3.375 2.435m0 0v8.28m0 0H65.615c-1.928 0-1.928 1.948-1.928 1.948v3.41s0 1.948 1.928 1.948h41.457c1.928 0 1.928-1.948 1.928-1.948v-3.897s0-1.461-1.928-1.461H85.379zm0 20.943H65.615c-1.928 0-1.928 1.948-1.928 1.948v16.56s0 1.948 1.928 1.948h41.457c1.928 0 1.928-1.948 1.928-1.948V90.005s0-1.461-1.928-1.461H85.379z" stroke="url(#paint0_linear_1872_12296)" stroke-width="3"/><defs><linearGradient id="paint0_linear_1872_12296" x1="15" y1="14.513" x2="109.482" y2="108.026" gradientUnits="userSpaceOnUse"><stop stop-color="#6B9B3C"/><stop offset="1" stop-color="#396D05"/></linearGradient></defs></svg>