<svg width="124" height="124" fill="none" xmlns="http://www.w3.org/2000/svg"><path fill="#fff" d="M0 0h124v124H0z"/><path d="M69.995 94.185c9.573 0 9.406-11.75 0-11.75h-13.19s-6.793-4.598-15.064-4.598c-7.929 0-14.2 4.087-14.2 4.087m42.454 12.26H55.237m14.758 0h10.326l12.28-9.961s1.306-1.277 6.01-4.343c7.79-5.077 14.109 2.044 7.838 8.685-11.028 11.68-16.2 16.859-16.2 16.859S87.114 109 80.321 109H41.74l-14.2-5.62m0 0V81.924m0 21.456v3.066s0 1.532-1.045 1.532h-10.45c-1.046 0-1.046-1.532-1.046-1.532V78.348s0-1.533 1.045-1.533h10.451c1.046 0 1.046 1.533 1.046 1.533v3.576M38.5 38.46L61 23l23 15.462m-45.5 0L36 40l-4.5-5L61 15l30 20-4.5 5-2.5-1.538m-45.5 0V69.5H52m32-31.038V69.5H69.5m-17.5 0V47h17.5v22.5m-17.5 0h17.5" stroke="url(#paint0_linear_1872_12300)" stroke-width="3"/><defs><linearGradient id="paint0_linear_1872_12300" x1="29.632" y1="14.71" x2="91.497" y2="86.993" gradientUnits="userSpaceOnUse"><stop stop-color="#6B9B3C"/><stop offset="1" stop-color="#396D05"/></linearGradient></defs></svg>