<svg width="124" height="124" fill="none" xmlns="http://www.w3.org/2000/svg"><path fill="#fff" d="M0 0h124v124H0z"/><path d="M30.5 42.796s5.5-2.022 5.5-4.549v-9.602m-5.5 14.15s-11-3.486-11-9.096V22.075C19.5 18.561 21.523 15 25 15h8c3 0 3 4.043 3 4.043v1.01m-5.5 22.743v48.01m5.5-62.16h20m-20 0v-8.592m20 8.591v-8.591m0 8.591v7.58m0-16.171H36m20 0s1.12-2.527 2.5-2.527H68c1.38 0 2.5 2.527 2.5 2.527m0 0v8.591m0-8.591H92m-21.5 8.591v7.58m0-7.58H92m-21.5 7.58H56m14.5 0l1.415 19.71M70.5 36.225l-16.073 19.71M56 36.225l15.915 19.71M56 36.225l-1.573 19.71M92 20.054v8.591m0-8.591s.361-2.527 1.5-2.527H98c1.139 0 1.5 2.527 1.5 2.527v8.591s-.361 2.527-1.5 2.527h-2.25M92 28.645s.361 2.527 1.5 2.527h2.25M51 98.892h24m-24 0l1.714-21.478M51 98.892l22.458-21.478M51 98.892H39m36 0l-1.542-21.478M75 98.892L52.714 77.415M75 98.892h13.5M71.915 55.936l1.543 21.478m-1.543-21.479l-19.201 21.48m1.713-21.479l19.03 21.479m-19.03-21.479l-1.713 21.479M30.5 90.806H36c1.408 0 3 2.022 3 2.022v6.064m-8.5-8.086H25c-1.408 0-3 2.022-3 2.022v6.064m17 0H22m0 0h-5.5s-1.5 0-1.5 1.517v7.075C15 109 16.5 109 16.5 109H108c1 0 1-1.516 1-1.516v-7.075s0-1.517-1-1.517h-4.5m-7.75-67.72v42.957m0 0H93.5c-2.5 0-2.5 3.285-2.5 3.285v13.392m4.75-16.677H98c2.5 0 2.5 3.285 2.5 3.285v13.392m-9.5 0h9.5m-9.5 0h-1.5c-1 0-1 1.517-1 1.517v6.57m12-8.087h1.5c1.5 0 1.5 1.517 1.5 1.517v6.57m-15 0h15" stroke="url(#paint0_linear_1872_12294)" stroke-width="3"/><defs><linearGradient id="paint0_linear_1872_12294" x1="14.5" y1="14.495" x2="109.527" y2="110.511" gradientUnits="userSpaceOnUse"><stop stop-color="#6B9B3C"/><stop offset="1" stop-color="#396D05"/></linearGradient></defs></svg>