<svg width="124" height="124" fill="none" xmlns="http://www.w3.org/2000/svg"><path fill="#fff" d="M0 0h124v124H0z"/><path d="M40.28 96.534l-.79 1.275.79-1.275zm-11.807-11.16l1.228-.862-1.228.861zm9.916-56.24l-.858-1.23.858 1.23zm14.913-6.45l.307 1.47-.307-1.47zm16.233.966a1.5 1.5 0 00.282-2.102l-8.194-10.73a1.5 1.5 0 10-2.384 1.821l7.283 9.537-9.537 7.283a1.5 1.5 0 001.82 2.384l10.73-8.193zm31.634 30.026l-1.465.32 1.465-.32zM22.867 69.508a1.5 1.5 0 00-2.073.452l-7.292 11.36a1.5 1.5 0 102.525 1.62l6.482-10.098 10.099 6.481a1.5 1.5 0 001.62-2.524l-11.361-7.292zm71.53 14.605a1.5 1.5 0 001.793 1.134l13.17-2.966a1.5 1.5 0 00-.659-2.927L96.994 81.99l-2.637-11.707a1.5 1.5 0 00-2.927.66l2.967 13.17zm-39.535 16.398a38.944 38.944 0 01-13.791-5.252l-1.58 2.55a41.942 41.942 0 0014.85 5.656l.52-2.954zM41.07 95.259A39.03 39.03 0 0129.7 84.512l-2.456 1.723A42.03 42.03 0 0039.49 97.81l1.58-2.55zm-1.823-64.895a39.027 39.027 0 0114.36-6.21l-.613-2.937a42.029 42.029 0 00-15.464 6.688l1.717 2.459zm14.36-6.21c4.683-.979 9.82-.879 14.817-.21l.399-2.973c-5.199-.696-10.702-.825-15.829.246l.614 2.936zm16.009 76.139a38.942 38.942 0 01-14.755.218l-.521 2.954a41.924 41.924 0 0015.89-.236l-.614-2.936zm23.908-60.359a38.93 38.93 0 016.179 14.062l2.931-.64a41.929 41.929 0 00-6.654-15.145l-2.456 1.724zm6.179 14.062a38.67 38.67 0 01.289 14.994l2.954.521a41.682 41.682 0 00-.312-16.155l-2.931.64zm-71.07-12.532a38.928 38.928 0 0110.614-11.1l-1.717-2.46a41.927 41.927 0 00-11.433 11.957l2.535 1.603zM29.7 84.512a38.927 38.927 0 01-6.179-14.062l-2.93.64a41.928 41.928 0 006.653 15.145l2.456-1.723zM99.993 68.99a38.681 38.681 0 01-5.4 13.992l2.535 1.603a41.682 41.682 0 005.819-15.074l-2.954-.52z" fill="url(#paint0_linear_1872_12301)"/><path d="M72.439 40L47 65.178h9.158L49.544 84 76 58.822h-9.667L72.44 40z" stroke="url(#paint1_linear_1872_12301)" stroke-width="3"/><defs><linearGradient id="paint0_linear_1872_12301" x1="20.656" y1="16.38" x2="109.802" y2="106.992" gradientUnits="userSpaceOnUse"><stop stop-color="#6B9B3C"/><stop offset="1" stop-color="#396D05"/></linearGradient><linearGradient id="paint1_linear_1872_12301" x1="47" y1="40" x2="76" y2="84" gradientUnits="userSpaceOnUse"><stop stop-color="#6B9B3C"/><stop offset="1" stop-color="#396D05"/></linearGradient></defs></svg>