<svg width="124" height="124" fill="none" xmlns="http://www.w3.org/2000/svg"><path fill="#fff" d="M0 0h124v124H0z"/><path d="M63.94 23.727v13.024m0-13.024l6.055-5.01c6.055-5.008 16.65-3.506 16.65-3.506s-7.89 14.42-16.65 19.035c-2.263 1.192-6.054 2.505-6.054 2.505m0-13.024l-6.055-5.01c-6.054-5.008-16.145-3.506-16.145-3.506s7.517 14.446 16.145 19.035c2.258 1.201 6.055 2.505 6.055 2.505m0 0V50.25m0 12.414s3.791-1.313 6.054-2.505c8.76-4.614 16.65-19.035 16.65-19.035s-10.595-1.503-16.65 3.506l-6.054 5.62m0 12.414s-3.797-1.304-6.055-2.505c-8.629-4.589-16.145-19.035-16.145-19.035s10.09-1.503 16.145 3.506l6.055 5.62m0 12.414V50.25m0 12.414v4.445m0 0c-17.065 0-22.2 10.728-22.2 10.728m22.2-10.728c11.136 0 17.425 2.554 23.696 9.195 2.546 2.697 4.964 7.919 4.964 7.919m-50.86-6.386c8.27 0 15.064 4.598 15.064 4.598h13.19c9.406 0 9.573 11.75 0 11.75M41.741 77.837c-7.929 0-14.2 4.087-14.2 4.087m42.454 12.26H55.237m14.758 0h10.326l12.28-9.961M27.54 103.38l14.2 5.62h38.58c6.793 0 9.928-3.576 9.928-3.576s5.172-5.179 16.2-16.859c6.271-6.641-.048-13.762-7.839-8.685-4.703 3.066-6.01 4.343-6.01 4.343M27.543 103.38V81.924m0 21.456v3.066s0 1.532-1.046 1.532h-10.45c-1.046 0-1.046-1.532-1.046-1.532V78.348s0-1.533 1.045-1.533h10.451c1.046 0 1.046 1.533 1.046 1.533v3.576" stroke="url(#paint0_linear_1872_12299)" stroke-width="3"/><defs><linearGradient id="paint0_linear_1872_12299" x1="29.632" y1="14.71" x2="91.497" y2="86.993" gradientUnits="userSpaceOnUse"><stop stop-color="#6B9B3C"/><stop offset="1" stop-color="#396D05"/></linearGradient></defs></svg>