<svg width="124" height="124" fill="none" xmlns="http://www.w3.org/2000/svg"><path fill="#fff" d="M0 0h124v124H0z"/><path d="M40.322 22.774h-5.826S31 22.774 31 27.435v37.87c0 4.078 3.496 4.078 3.496 4.078h12.089m33.937-46.609h5.826s2.913 0 2.913 4.661v37.87c0 4.078-2.913 4.078-2.913 4.078H73.094m0 0v-2.33s0-1.748-1.894-1.748H48.478c-1.893 0-1.893 1.748-1.893 1.748v2.33m26.509 0v2.33s0 2.331-1.894 2.331H59.84m-13.255-4.66v2.33s0 2.33 1.893 2.33H59.84m0 0v6.991s0 2.913 2.622 2.913h20.391c2.33 0 2.33 2.33 2.33 2.33v5.244s0 1.748-2.33 1.748h-42.53c-1.748 0-1.748 1.165-1.748 1.165v5.244s0 2.33 1.748 2.33h44.86m0 0c-.32-3.044 2.331-6.991 6.41-6.991 4.078 0 6.408 3.93 6.408 6.991 0 3.061-1.748 6.992-6.409 6.992-4.66 0-6.73-3.948-6.408-6.992z" stroke="url(#paint0_linear_1872_12302)" stroke-width="3"/><path d="M47.477 28.6V17.53c0-2.33-1.748-2.33-1.748-2.33h-4.66s-1.75 0-1.749 2.33c.001 4.324.002 6.747 0 11.07 0 1.748 1.748 1.748 1.748 1.748h4.661s1.748 0 1.748-1.748z" stroke="url(#paint1_linear_1872_12302)" stroke-width="3"/><path d="M80.774 28.6V17.53c0-2.33-1.748-2.33-1.748-2.33h-4.661s-1.748 0-1.748 2.33V28.6c0 1.748 1.748 1.748 1.748 1.748h4.66s1.749 0 1.749-1.748z" stroke="url(#paint2_linear_1872_12302)" stroke-width="3"/><defs><linearGradient id="paint0_linear_1872_12302" x1="31" y1="23" x2="98" y2="109.001" gradientUnits="userSpaceOnUse"><stop stop-color="#6B9B3C"/><stop offset="1" stop-color="#396D05"/></linearGradient><linearGradient id="paint1_linear_1872_12302" x1="38.998" y1="15" x2="47.498" y2="31.5" gradientUnits="userSpaceOnUse"><stop stop-color="#6B9B3C"/><stop offset="1" stop-color="#396D05"/></linearGradient><linearGradient id="paint2_linear_1872_12302" x1="73" y1="15" x2="80.5" y2="30" gradientUnits="userSpaceOnUse"><stop stop-color="#6B9B3C"/><stop offset="1" stop-color="#396D05"/></linearGradient></defs></svg>