<svg width="124" height="124" fill="none" xmlns="http://www.w3.org/2000/svg"><path fill="#fff" d="M0 0h124v124H0z"/><path d="M33.9 18l1.49.165.004-.035.003-.036L33.9 18zm1.492-3v-1.5V15zm5.47 3l-1.495.12.003.037.005.037L40.862 18zm56.699 44l.56-1.392L97.56 62zM15 107.5a1.5 1.5 0 000 3v-3zm93.503 3a1.5 1.5 0 000-3v3zm-83.556-84l-1.32-.71-.02.034-.017.037 1.357.639zm24.868 0l-1.44.418.05.174.09.157 1.3-.749zM25.942 49a1.5 1.5 0 000 3v-3zm22.878 3a1.5 1.5 0 000-3v3zm33.82-16h1.5v-.8l-.665-.446L82.64 36zm11.937 0l-.835-1.246-.665.446v.8h1.5zm0 25.042l-.459 1.428.028.009.029.008.402-1.445zm-8.222-43.858a1.5 1.5 0 002.517 1.632l-2.517-1.632zM89.603 16l-.637-1.358.637 1.358zm10.445 3.5l-.286 1.473.286-1.473zm5.471 0l.357 1.457-.357-1.457zm4.215-.192a1.5 1.5 0 10-1.468-2.616l1.468 2.616zM70.206 78a1.5 1.5 0 100 3v-3zM90.1 81a1.5 1.5 0 100-3v3zm-19.894 8.5a1.5 1.5 0 100 3v-3zm19.894 3a1.5 1.5 0 100-3v3zM33.9 18l1.497.095v-.013l.007-.07a6.933 6.933 0 01.197-1.107c.086-.307.175-.49.228-.564.045-.062-.098.159-.438.159v-3c-.99 0-1.645.596-2.003 1.097-.348.487-.551 1.055-.675 1.498a9.266 9.266 0 00-.296 1.636 8.324 8.324 0 00-.013.156l-.001.011v.007L33.9 18zm1.492-1.5h3.978v-3h-3.978v3zm3.978 0c-.373 0-.52-.246-.464-.166.058.082.15.272.239.582a6.683 6.683 0 01.221 1.19l.001.015L40.862 18l1.496-.12v-.007l-.002-.011-.003-.036a8.959 8.959 0 00-.064-.517 9.663 9.663 0 00-.262-1.225c-.127-.44-.33-1-.67-1.48-.34-.483-.987-1.104-1.987-1.104v3zm-10.941 51V66h-6.962v3h6.961v-1.5zM21.466 66c-.638 0-1.215.165-1.698.488-.473.318-.77.73-.951 1.094a3.35 3.35 0 00-.343 1.39v.027l1.5.001 1.5.001v.019a1.234 1.234 0 01-.001.022c0-.002 0-.013.004-.031a.368.368 0 01.026-.093c.005-.01-.011.026-.065.062-.063.043-.081.02.028.02v-3zm-2.992 3v40h3V69h-3zm28.854 0h12.434v-3H47.328v3zm12.434-1.5h1.5v-15h-3v14.999l1.5.001zm1.5-15c0-.316 0-.579.004-.807.003-.23.01-.398.021-.524.012-.132.024-.17.02-.157a.842.842 0 01-.192.315 1.084 1.084 0 01-.548.32c-.142.03-.22.012-.173.018.04.006.128.023.289.07.157.044.348.106.592.187l.953-2.844c-.473-.159-.978-.322-1.42-.384-.441-.062-1.27-.084-1.902.604-.5.544-.576 1.254-.607 1.61-.038.438-.037.996-.037 1.592h3zm35.74 10.892c.99.398 1.341.832 1.46 1.025a.714.714 0 01.091.195c.003.01.001.008 0-.01a.64.64 0 01-.005-.084v-.016s0-.002 1.5-.002 1.5-.001 1.5-.002v-.008l-.001-.01v-.024l-.002-.054a2.724 2.724 0 00-.081-.514 3.698 3.698 0 00-.453-1.055c-.502-.807-1.394-1.623-2.89-2.225L97 63.392zm1.546 1.108V109h3V64.5h-3zM15 110.5h4.974v-3H15v3zm85.048 0h8.455v-3h-8.455v3zM39.375 18.194l.995 7.616 2.974-.389-.994-7.615-2.975.388zm-6.966-.359l-.842 7.616 2.982.33.841-7.616-2.981-.33zm9.448 6.28h-8.8v3h8.8v-3zm-15.915 3h7.115v-3h-7.114v3zm-.995-.615c1.321.71 1.32.711 1.32.711v.002l-.001.002-.002.003-.001.003.003-.006a1.375 1.375 0 01.137-.198c.046-.055.058-.058.03-.038a.86.86 0 01-.491.136v-3c-.555 0-.984.233-1.24.413a3.201 3.201 0 00-.606.57 4.496 4.496 0 00-.454.661.077.077 0 01-.01.018l-.003.007-.001.003h-.001v.002l1.32.711zm0 0l-1.357-.64v.003a7.053 7.053 0 01-.012.026c-.01.018-.022.045-.039.08l-.143.306a331.386 331.386 0 00-2.056 4.487 121.507 121.507 0 00-1.56 3.61c-.213.526-.4 1.008-.535 1.401a8.09 8.09 0 00-.174.562c-.037.137-.1.394-.1.665h3c0 .146-.029.211 0 .1.02-.075.055-.19.11-.35.11-.318.273-.742.479-1.247.41-1.007.96-2.27 1.518-3.515a296.43 296.43 0 012.177-4.744l.037-.078.009-.02a.165.165 0 01.002-.005v-.001h.001l-1.357-.64zM18.971 37c0 1.434.57 2.432 1.41 2.996a3.02 3.02 0 001.545.504h.035c.001 0 .002 0 .002-1.5s0-1.5.002-1.5h.013a.548.548 0 01.064.003l.015.002c-.007-.002-.009-.004-.005-.001.014.01.01.015-.005-.016-.018-.037-.076-.175-.076-.488h-3zm12.596-11.55l-1.48 13.385 2.982.33 1.48-13.385-2.982-.33zm-1.48 13.385l-3.15 28.5 2.982.33 3.15-28.5-2.981-.33zM21.964 40.5h9.615v-3h-9.615v3zM40.37 25.81l1.748 13.384 2.975-.388-1.749-13.385-2.974.389zm1.748 13.384l3.723 28.5 2.974-.388-3.722-28.5-2.975.388zm1.487 1.306H52.8v-3h-9.194v3zM52.8 39l.001 1.5h.025a2.783 2.783 0 00.167-.006 5.275 5.275 0 001.61-.352c.46-.185 1.01-.497 1.45-1.029.463-.557.734-1.273.734-2.113h-3c0 .16-.04.194-.044.199a.665.665 0 01-.26.16 2.117 2.117 0 01-.662.14l-.033.001c-.002 0-.002 0 0 0h.01c.001 0 .002 0 .002 1.5zm3.987-2c0-.316-.09-.606-.134-.742a7.302 7.302 0 00-.219-.578 25.842 25.842 0 00-.66-1.41 108.18 108.18 0 00-1.907-3.615 276.136 276.136 0 00-2.689-4.795l-.046-.08-.012-.021-.003-.006-.001-.001-1.3.748-1.3.749v.001l.004.005.011.02.045.079.173.3a293.066 293.066 0 012.486 4.44 108.285 108.285 0 011.854 3.511c.25.505.448.926.58 1.239.066.157.107.266.128.333.037.113-.01.014-.01-.177h3zm-6.971-10.5l1.44-.419v-.003l-.002-.005-.004-.011-.008-.026a2.491 2.491 0 00-.1-.266 3.184 3.184 0 00-.322-.578c-.299-.423-.944-1.077-1.999-1.077v3a.658.658 0 01-.35-.103.478.478 0 01-.08-.064c-.014-.014-.02-.024-.02-.024l.005.01a.258.258 0 01.01.02l.001.003a.35.35 0 01-.004-.013l-.003-.011-.002-.007-.002-.004v-.003l1.44-.419zm-.995-2.385h-6.963v3h6.962v-3zM31.578 40.5h12.027v-3H31.58v3zM25.942 52H48.82v-3H25.942v3zm35.333-.078c.758.254 5.996 1.936 11.022 3.548 2.518.807 4.99 1.6 6.832 2.189l2.218.71.618.198.162.052.042.013.01.004h.003l.458-1.428.457-1.428-.003-.001-.01-.004-.042-.013-.163-.052-.618-.198-2.217-.71-6.83-2.189a2678.257 2678.257 0 01-10.986-3.535l-.953 2.844zm22.865 5.286V36h-3v21.208h3zM82.64 36c.835-1.246.836-1.246.836-1.245l.002.001.003.002a.105.105 0 00.004.002l.002.002a2.87 2.87 0 01-.451-.422c-.26-.305-.388-.594-.388-.84h-3c0 1.254.618 2.215 1.105 2.786a5.867 5.867 0 001.007.93l.027.018.01.007c.002 0 .003.002.004.003h.002l.001.002L82.64 36zm.008-2.5v-5h-3v5h3zm-1.5-5l1.5.001v-.007a1.81 1.81 0 01.092-.47c.042-.112.07-.122.037-.093-.063.057-.139.069-.137.069v-3c-.744 0-1.379.262-1.862.694a3.208 3.208 0 00-.849 1.282 4.59 4.59 0 00-.28 1.5v.022c0 .001 0 .002 1.5.002zm1.492-.5h11.936v-3H82.64v3zm11.937 0c.002 0-.074-.012-.137-.069-.032-.029-.005-.019.037.093a1.605 1.605 0 01.091.47v.008c0-.002 0-.002 1.5-.002l1.5-.001v-.023a3.167 3.167 0 00-.004-.142 4.771 4.771 0 00-.276-1.358 3.21 3.21 0 00-.85-1.282 2.746 2.746 0 00-1.86-.694v3zm1.492.5h-1.5v5h3v-5h-1.5zm-1.5 5c0 .246-.128.535-.388.84a2.863 2.863 0 01-.45.422l.001-.002.004-.002.002-.002h.002v-.002c.001 0 .002 0 .837 1.246s.835 1.246.836 1.245l.002-.001.005-.003.01-.007.027-.019a3.96 3.96 0 00.316-.245 5.86 5.86 0 00.691-.684c.487-.57 1.105-1.532 1.105-2.786h-3zM82.182 58.636l11.936 3.834.917-2.856L83.1 55.78l-.917 2.856zm12.395 2.406l-.403 1.445h.005l.015.005.06.017a43.298 43.298 0 01.991.291c.615.187 1.306.41 1.756.592l1.12-2.784c-.583-.234-1.384-.49-2.003-.678a59.06 59.06 0 00-1.047-.308l-.067-.018a5.927 5.927 0 01-.018-.005l-.005-.002h-.002l-.402 1.445zM93.077 36v25.042h3V36h-3zm-5.463-18l1.258.816v.002c-.001 0-.001 0 0 0l.003-.006.024-.035a8.118 8.118 0 01.482-.634c.354-.42.675-.699.86-.785l-1.275-2.716c-.812.38-1.485 1.101-1.877 1.565a11.148 11.148 0 00-.727.966l-.004.007-.002.002v.001l1.258.817zm2.626-.642c.81-.38 1.582-.314 2.171-.018l1.347-2.68c-1.4-.704-3.137-.794-4.792-.018l1.274 2.716zm2.171-.018c1.287.647 2.118 1.275 3.27 1.983 1.118.688 2.351 1.314 4.08 1.65l.572-2.945c-1.255-.244-2.144-.685-3.081-1.26-.903-.556-2.062-1.389-3.494-2.108l-1.347 2.68zm7.35 3.633c2.224.43 3.757.563 6.115-.016l-.715-2.914c-1.793.44-2.856.367-4.828-.015l-.571 2.945zm6.115-.016c.877-.216 1.863-.648 2.57-.987a26.166 26.166 0 001.182-.603l.075-.042a.946.946 0 00.021-.011l.007-.004.002-.001h.001L109 18l-.734-1.308-.002.001a5.717 5.717 0 00-.073.04l-.233.125c-.201.106-.484.252-.808.407-.674.323-1.429.64-1.989.778l.715 2.914zM28.429 69h4.973v-3H28.43v3zm4.973 0h13.926v-3H33.402v3zm0 38.5H19.974v3h13.428v-3zm-1.5-40V109h3V67.5h-3zm15.426 40H33.402v3h13.926v-3zm-1.5-40V109h3V67.5h-3zm54.22 40H59.762v3h40.286v-3zm-40.286 0H47.328v3h12.434v-3zm-1.5-40V109h3V67.5h-3zM70.206 81H90.1v-3H70.207v3zm0 11.5H90.1v-3H70.207v3z" fill="url(#paint0_linear_1872_12295)"/><defs><linearGradient id="paint0_linear_1872_12295" x1="14.503" y1="15" x2="109.496" y2="108.496" gradientUnits="userSpaceOnUse"><stop stop-color="#6B9B3C"/><stop offset="1" stop-color="#396D05"/></linearGradient></defs></svg>