<svg width="124" height="124" fill="none" xmlns="http://www.w3.org/2000/svg"><path fill="#fff" d="M0 0h124v124H0z"/><path d="M20.41 42.803l-.838-1.244-4.071 2.744h4.91v-1.5zM61.662 15l.838-1.244-.838-.565-.838.565.838 1.244zm41.252 27.803v1.5h4.909l-4.071-2.744-.838 1.244zM15 109h-1.5v1.5H15V109zm94 0v1.5h1.5V109H109zM45.432 53.88a1.5 1.5 0 100 3v-3zm32.46 3a1.5 1.5 0 000-3v3zM21.248 44.047L62.5 16.244l-1.676-2.488L19.572 41.56l1.676 2.488zm39.576-27.803l41.251 27.803 1.677-2.488L62.5 13.756l-1.676 2.488zm-30.27 25.059H20.41v3h10.144v-3zm-1.5 1.5v52.296h3V42.803h-3zm73.86-1.5H92.77v3h10.144v-3zM94.27 95.099V42.803h-3v52.296h3zm-63.716 0v-1.5H22.44v3h8.113l.001-1.5zM13.5 103.042V109h3v-5.958h-3zM15 110.5h94v-3H15v3zm91.971-10.282h-4.057v3h4.057v-3zm-6.086-6.62h-8.114v3h8.115v-3zm-80.475 9.62h82.504v-3H20.41v3zm72.36-61.915h-7.44v3h7.44v-3zm-7.44 55.296h7.44v-3h-7.44v3zm-1.5-53.796v52.296h3V42.803h-3zm1.5-1.5H37.994v3H85.33v-3zm-47.337 0h-7.439v3h7.439v-3zm-7.439 55.296h7.439v-3h-7.439v3zm5.939-53.796v52.296h3V42.803h-3zm8.939 14.077h32.46v-3h-32.46v3zm8.791 11.916h14.201v-3h-14.2v3zm16.906 27.803h14.202v-3H71.129v3zm-33.136 0h13.525v-3H37.993v3zm13.525 0h19.611v-3H51.518v3zm52.896 5.119v-5.296h-3v5.296h3zm-1.5-5.296c1.5 0 1.5 0 1.5-.002v-.017l-.001-.021-.002-.05a2.58 2.58 0 00-.076-.487 2.763 2.763 0 00-.484-.997c-.6-.782-1.598-1.25-2.966-1.25v3c.66 0 .677.195.584.075a.232.232 0 01-.04-.086.472.472 0 01-.014-.103l-.001-.028v-.031c0-.001 0-.002 1.5-.002zM22.439 93.6c-1.369 0-2.366.467-2.966 1.25a2.764 2.764 0 00-.55 1.353 2.29 2.29 0 00-.012.18v.038c0 .001 0 .002 1.5.002s1.5.002 1.5.003v.002l-.001.004v.009a9.102 9.102 0 01-.001.044.77.77 0 01-.014.103.235.235 0 01-.04.086c-.093.12-.076-.074.584-.074v-3zm-3.529 2.823v5.296h3v-5.296h-3zm1.5 5.296v-1.5h-3.38v3h3.38v-1.5zm-3.381-1.5c-1.369 0-2.367.467-2.966 1.25a2.774 2.774 0 00-.55 1.354 2.21 2.21 0 00-.012.179v.022l-.001.01v.007c0 .001 0 .002 1.5.002s1.5.001 1.5.002v.032a.772.772 0 01-.015.131.242.242 0 01-.04.086c-.093.12-.076-.075.584-.075v-3zM110.5 109v-5.958h-3V109h3zm-1.5-5.958c1.5 0 1.5-.001 1.5-.002v-.017l-.001-.022-.001-.05a2.562 2.562 0 00-.076-.487 2.775 2.775 0 00-.485-.996c-.599-.783-1.597-1.25-2.966-1.25v3c.66 0 .677.195.585.075a.241.241 0 01-.041-.086.454.454 0 01-.01-.058l-.004-.045-.001-.028v-.032c0-.001 0-.002 1.5-.002zM54.223 65.796c-.932 0-1.731.232-2.384.657a3.837 3.837 0 00-1.319 1.484 4.702 4.702 0 00-.502 1.993v.012s0 .002 1.5.002l1.5.001v.02l.001-.026c.003-.032.008-.087.02-.157a1.71 1.71 0 01.153-.48c.077-.15.17-.26.287-.336.109-.071.324-.17.744-.17v-3zm-4.205 4.148v25.155h3V69.944h-3zm18.406-1.148c.42 0 .636.099.744.17.117.076.21.186.287.336a1.706 1.706 0 01.175.663v-.02l1.5-.001c1.5 0 1.5-.001 1.5-.002v-.031a2.848 2.848 0 00-.01-.19 4.698 4.698 0 00-.493-1.783 3.837 3.837 0 00-1.319-1.485c-.652-.425-1.451-.657-2.384-.657v3zm1.205 1.148v25.155h3V69.944h-3z" fill="url(#paint0_linear_1872_12303)"/><defs><linearGradient id="paint0_linear_1872_12303" x1="15" y1="15" x2="109" y2="109" gradientUnits="userSpaceOnUse"><stop stop-color="#6B9B3C"/><stop offset="1" stop-color="#396D05"/></linearGradient></defs></svg>