<svg width="124" height="124" viewBox="0 0 124 124" fill="none" xmlns="http://www.w3.org/2000/svg">
<mask id="path-1-inside-1_577_5599" fill="white">
<path d="M44.5 14H112C112 14 113.16 69.5499 112 83C109.5 112 89.4995 112 73 112C68.4995 112 12.0005 112 12.0005 112C12.0005 112 11.9994 73 12.0005 50C12.0022 14 44.5 14 44.5 14Z"/>
</mask>
<path d="M44.5 14H112C112 14 113.16 69.5499 112 83C109.5 112 89.4995 112 73 112C68.4995 112 12.0005 112 12.0005 112C12.0005 112 11.9994 73 12.0005 50C12.0022 14 44.5 14 44.5 14Z" stroke="url(#paint0_linear_577_5599)" stroke-width="6" mask="url(#path-1-inside-1_577_5599)"/>
<mask id="path-2-inside-2_577_5599" fill="white">
<path d="M62 48C62 56.8366 54.8366 64 46 64C37.1634 64 30 56.8366 30 48C30 39.1634 37.1634 32 46 32C54.8366 32 62 39.1634 62 48Z"/>
<path d="M94 48C94 56.8366 86.8366 64 78 64C69.1634 64 62 56.8366 62 48C62 39.1634 69.1634 32 78 32C86.8366 32 94 39.1634 94 48Z"/>
<path d="M94 80C94 88.8366 86.8366 96 78 96C69.1634 96 62 88.8366 62 80C62 71.1634 69.1634 64 78 64C86.8366 64 94 71.1634 94 80Z"/>
<path d="M62 80C62 88.8366 54.8366 96 46 96C37.1634 96 30 88.8366 30 80C30 71.1634 37.1634 64 46 64C54.8366 64 62 71.1634 62 80Z"/>
</mask>
<path d="M59 48C59 55.1797 53.1797 61 46 61V67C56.4934 67 65 58.4934 65 48H59ZM46 61C38.8203 61 33 55.1797 33 48H27C27 58.4934 35.5066 67 46 67V61ZM33 48C33 40.8203 38.8203 35 46 35V29C35.5066 29 27 37.5066 27 48H33ZM46 35C53.1797 35 59 40.8203 59 48H65C65 37.5066 56.4934 29 46 29V35ZM91 48C91 55.1797 85.1797 61 78 61V67C88.4934 67 97 58.4934 97 48H91ZM78 61C70.8203 61 65 55.1797 65 48H59C59 58.4934 67.5066 67 78 67V61ZM65 48C65 40.8203 70.8203 35 78 35V29C67.5066 29 59 37.5066 59 48H65ZM78 35C85.1797 35 91 40.8203 91 48H97C97 37.5066 88.4934 29 78 29V35ZM91 80C91 87.1797 85.1797 93 78 93V99C88.4934 99 97 90.4934 97 80H91ZM78 93C70.8203 93 65 87.1797 65 80H59C59 90.4934 67.5066 99 78 99V93ZM65 80C65 72.8203 70.8203 67 78 67V61C67.5066 61 59 69.5066 59 80H65ZM78 67C85.1797 67 91 72.8203 91 80H97C97 69.5066 88.4934 61 78 61V67ZM59 80C59 87.1797 53.1797 93 46 93V99C56.4934 99 65 90.4934 65 80H59ZM46 93C38.8203 93 33 87.1797 33 80H27C27 90.4934 35.5066 99 46 99V93ZM33 80C33 72.8203 38.8203 67 46 67V61C35.5066 61 27 69.5066 27 80H33ZM46 67C53.1797 67 59 72.8203 59 80H65C65 69.5066 56.4934 61 46 61V67Z" fill="url(#paint1_linear_577_5599)" mask="url(#path-2-inside-2_577_5599)"/>
<defs>
<linearGradient id="paint0_linear_577_5599" x1="12" y1="14" x2="113" y2="112" gradientUnits="userSpaceOnUse">
<stop stop-color="#6B9B3C"/>
<stop offset="1" stop-color="#396D05"/>
</linearGradient>
<linearGradient id="paint1_linear_577_5599" x1="30" y1="32" x2="94" y2="96" gradientUnits="userSpaceOnUse">
<stop stop-color="#6B9B3C"/>
<stop offset="1" stop-color="#396D05"/>
</linearGradient>
</defs>
</svg>
