<svg width="124" height="124" fill="none" xmlns="http://www.w3.org/2000/svg"><path d="M35.576 99.813l.79-1.275-.79 1.275zM22.393 87.371l-1.227.862 1.227-.862zm11.052-62.676l-.858-1.23.858 1.23zm16.643-7.184l.306 1.469-.306-1.469zm18.012.944a1.5 1.5 0 00.282-2.102L60.19 5.623a1.5 1.5 0 10-2.384 1.82l7.282 9.538-9.537 7.282a1.5 1.5 0 001.82 2.385l10.73-8.193zm35.424 33.61l-1.466.32 1.466-.32zM16.037 69.83a1.5 1.5 0 00-2.072.454L6.679 81.649a1.5 1.5 0 002.526 1.619l6.476-10.102 10.102 6.476a1.5 1.5 0 001.62-2.526L16.036 69.83zm80.107 16.118a1.5 1.5 0 001.792 1.135l13.172-2.96a1.5 1.5 0 00-.658-2.927l-11.708 2.63-2.63-11.707a1.5 1.5 0 00-2.927.657l2.959 13.172zm-47.485-28.9a1.5 1.5 0 10-2.318 1.904l2.318-1.904zM57 69.565l-1.16.952 1.05 1.279 1.17-1.17-1.06-1.06zm18.56-16.44a1.5 1.5 0 00-2.12-2.12l2.12 2.12zm-23.738 51.293a43.694 43.694 0 01-15.457-5.88l-1.579 2.55a46.703 46.703 0 0016.515 6.285l.521-2.955zm-15.457-5.88a43.744 43.744 0 01-12.744-12.03l-2.454 1.725a46.74 46.74 0 0013.62 12.855l1.578-2.55zm-2.062-72.613a43.745 43.745 0 0116.09-6.945l-.611-2.937a46.744 46.744 0 00-17.195 7.421l1.716 2.461zm16.09-6.945c5.253-1.094 11.008-.98 16.597-.23l.4-2.974c-5.791-.776-11.912-.92-17.608.267l.612 2.937zm17.965 85.199a43.691 43.691 0 01-16.536.239l-.52 2.955a46.724 46.724 0 0017.667-.257l-.611-2.937zM95.13 36.651a43.534 43.534 0 016.927 15.735l2.931-.641a46.542 46.542 0 00-7.404-16.82l-2.454 1.726zm6.927 15.735a43.223 43.223 0 01.329 16.777l2.954.521a46.207 46.207 0 00-.352-17.94l-2.931.642zM22.411 38.342a43.55 43.55 0 0111.892-12.417l-1.716-2.46a46.549 46.549 0 00-12.71 13.272l2.534 1.605zm1.21 48.166a43.55 43.55 0 01-6.928-15.735l-2.93.64a46.549 46.549 0 007.403 16.82l2.455-1.725zm78.766-17.345a43.212 43.212 0 01-6.047 15.654l2.535 1.604a46.214 46.214 0 006.466-16.737l-2.954-.52zm-56.046-10.21l9.5 11.564 2.318-1.904-9.5-11.565-2.318 1.904zm11.72 11.673l17.5-17.5-2.122-2.121-17.5 17.5 2.122 2.12z" fill="#3B589A"/></svg>