<svg width="124" height="124" fill="none" xmlns="http://www.w3.org/2000/svg"><mask id="a" fill="#fff"><path d="M44.5 14H112s1.16 55.55 0 69c-2.5 29-22.5 29-39 29H12V50c.002-36 32.5-36 32.5-36z"/></mask><path d="M44.5 14H112s1.16 55.55 0 69c-2.5 29-22.5 29-39 29H12V50c.002-36 32.5-36 32.5-36z" stroke="url(#paint0_linear_577_5599)" stroke-width="6" mask="url(#a)"/><mask id="b" fill="#fff"><path d="M62 48c0 8.837-7.163 16-16 16s-16-7.163-16-16 7.163-16 16-16 16 7.163 16 16zm32 0c0 8.837-7.163 16-16 16s-16-7.163-16-16 7.163-16 16-16 16 7.163 16 16zm0 32c0 8.837-7.163 16-16 16s-16-7.163-16-16 7.163-16 16-16 16 7.163 16 16zm-32 0c0 8.837-7.163 16-16 16s-16-7.163-16-16 7.163-16 16-16 16 7.163 16 16z"/></mask><path d="M59 48c0 7.18-5.82 13-13 13v6c10.493 0 19-8.507 19-19h-6zM46 61c-7.18 0-13-5.82-13-13h-6c0 10.493 8.507 19 19 19v-6zM33 48c0-7.18 5.82-13 13-13v-6c-10.493 0-19 8.507-19 19h6zm13-13c7.18 0 13 5.82 13 13h6c0-10.493-8.507-19-19-19v6zm45 13c0 7.18-5.82 13-13 13v6c10.493 0 19-8.507 19-19h-6zM78 61c-7.18 0-13-5.82-13-13h-6c0 10.493 8.507 19 19 19v-6zM65 48c0-7.18 5.82-13 13-13v-6c-10.493 0-19 8.507-19 19h6zm13-13c7.18 0 13 5.82 13 13h6c0-10.493-8.507-19-19-19v6zm13 45c0 7.18-5.82 13-13 13v6c10.493 0 19-8.507 19-19h-6zM78 93c-7.18 0-13-5.82-13-13h-6c0 10.493 8.507 19 19 19v-6zM65 80c0-7.18 5.82-13 13-13v-6c-10.493 0-19 8.507-19 19h6zm13-13c7.18 0 13 5.82 13 13h6c0-10.493-8.507-19-19-19v6zM59 80c0 7.18-5.82 13-13 13v6c10.493 0 19-8.507 19-19h-6zM46 93c-7.18 0-13-5.82-13-13h-6c0 10.493 8.507 19 19 19v-6zM33 80c0-7.18 5.82-13 13-13v-6c-10.493 0-19 8.507-19 19h6zm13-13c7.18 0 13 5.82 13 13h6c0-10.493-8.507-19-19-19v6z" fill="url(#paint1_linear_577_5599)" mask="url(#b)"/><defs><linearGradient id="paint0_linear_577_5599" x1="12" y1="14" x2="113" y2="112" gradientUnits="userSpaceOnUse"><stop stop-color="#6B9B3C"/><stop offset="1" stop-color="#396D05"/></linearGradient><linearGradient id="paint1_linear_577_5599" x1="30" y1="32" x2="94" y2="96" gradientUnits="userSpaceOnUse"><stop stop-color="#6B9B3C"/><stop offset="1" stop-color="#396D05"/></linearGradient></defs></svg>