<svg width="16" height="15" fill="none" xmlns="http://www.w3.org/2000/svg"><path d="M15.994 7.765c0 .5-.416.892-.888.892h-.89l.02 4.447c0 .078-.005.15-.014.225v.45a1.11 1.11 0 01-1.11 1.111h-.445c-.03 0-.061-.025-.092-.003-.039-.022-.078.003-.117.003h-1.57a1.11 1.11 0 01-1.11-1.11v-2.445a.888.888 0 00-.89-.89H7.112a.888.888 0 00-.889.89v2.444a1.11 1.11 0 01-1.11 1.111H3.557c-.041 0-.083-.003-.125-.005-.033.002-.066.005-.1.005H2.89a1.111 1.111 0 01-1.111-1.11v-3.112c0-.025 0-.053.002-.078V8.657H.89A.88.88 0 010 7.765c0-.25.083-.472.278-.666L7.4.89c.194-.195.417-.223.611-.223.195 0 .417.056.586.195l7.092 6.236c.222.194.336.416.305.666z" fill="#77B946"/></svg>