<svg width="32" height="32" viewBox="0 0 32 32" fill="none" xmlns="http://www.w3.org/2000/svg">
<path fill-rule="evenodd" clip-rule="evenodd" d="M8 0C3.58172 0 0 3.58172 0 8V24C0 28.4183 3.58172 32 8 32H24C28.4183 32 32 28.4183 32 24V8C32 3.58172 28.4183 0 24 0H8ZM11.2459 11.6176C11.2459 14.1622 13.3982 16.3127 15.9878 16.3127L16.0034 16.3137C17.2528 16.3173 18.4526 15.8247 19.339 14.9441C20.2255 14.0636 20.726 12.867 20.7306 11.6176C20.7306 8.984 18.6672 6.8335 15.9887 6.8335C13.3982 6.8335 11.2459 8.98491 11.2459 11.6176ZM14.0573 11.6185C14.0573 10.5203 14.8914 9.59908 15.9878 9.59908C17.1299 9.59908 17.921 10.5194 17.9201 11.6185C17.9201 12.7148 17.1299 13.549 15.9887 13.549C14.8914 13.549 14.0573 12.7148 14.0573 11.6185ZM20.5555 22.8092L17.877 20.2205C18.8872 19.9134 19.8534 19.5183 20.6866 18.9912C21.3017 18.6392 21.4786 17.7629 21.0826 17.1038C20.6875 16.4457 19.8543 16.2706 19.1512 16.7097C18.1991 17.2907 17.1054 17.598 15.9901 17.598C14.8747 17.598 13.781 17.2907 12.8289 16.7097C12.1259 16.2706 11.3357 16.4457 10.8966 17.1038C10.5455 17.7629 10.6766 18.6402 11.3357 18.9912C12.2171 19.5152 13.1602 19.9275 14.1434 20.2187L11.4209 22.8082C10.8939 23.3784 10.8939 24.2126 11.4209 24.7397C11.7289 25.0018 12.08 25.1338 12.3871 25.1338C12.7831 25.1338 13.1351 25.0027 13.3982 24.7397L15.9887 22.1061L18.6672 24.7397C19.1063 25.3089 19.9854 25.3089 20.5555 24.7397C21.0826 24.2126 21.0826 23.3784 20.5555 22.8092Z" fill="#7E95C7"/>
</svg>
