<svg width="32" height="32" viewBox="0 0 32 32" fill="none" xmlns="http://www.w3.org/2000/svg">
<path fill-rule="evenodd" clip-rule="evenodd" d="M8 0C3.58172 0 0 3.58172 0 8V24C0 28.4183 3.58172 32 8 32H24C28.4183 32 32 28.4183 32 24V8C32 3.58172 28.4183 0 24 0H8ZM21.4519 21.6745L23.8284 10.4667V10.4673C24.0394 9.47894 23.4735 9.0925 22.8266 9.33494L8.85582 14.7175C7.90295 15.0904 7.91701 15.6248 8.69382 15.8673L12.2657 16.9855L20.5626 11.761C20.9524 11.5006 21.3079 11.6451 21.0159 11.905L14.3048 17.9693L14.0443 21.6571C14.4173 21.6571 14.5787 21.4956 14.7722 21.3021L16.5193 19.6214L20.1407 22.2899C20.805 22.6623 21.2724 22.4654 21.4519 21.6745Z" fill="#7E95C7"/>
</svg>
