<svg width="16" height="15" viewBox="0 0 16 15" fill="none" xmlns="http://www.w3.org/2000/svg">
<path d="M15.9944 7.76519C15.9944 8.26519 15.5778 8.65686 15.1056 8.65686H14.2167L14.2361 13.1041C14.2361 13.1819 14.2306 13.2541 14.2222 13.3291V13.7791C14.2222 14.393 13.725 14.8902 13.1111 14.8902H12.6667C12.6361 14.8902 12.6056 14.8652 12.575 14.8874C12.5361 14.8652 12.4972 14.8902 12.4583 14.8902H10.8889C10.275 14.8902 9.77778 14.393 9.77778 13.7791V11.3346C9.77778 10.843 9.38056 10.4457 8.88889 10.4457H7.11111C6.61944 10.4457 6.22222 10.843 6.22222 11.3346V13.7791C6.22222 14.393 5.725 14.8902 5.11111 14.8902H3.55833C3.51667 14.8902 3.475 14.8874 3.43333 14.8846C3.4 14.8874 3.36667 14.8902 3.33333 14.8902H2.88889C2.27528 14.8902 1.77778 14.393 1.77778 13.7791V10.668C1.77778 10.643 1.77861 10.6152 1.78028 10.5902V8.65686H0.890278C0.389444 8.65686 0 8.26519 0 7.76519C0 7.51519 0.0834445 7.29297 0.278056 7.09852L7.4 0.890635C7.59444 0.695802 7.81667 0.667969 8.01111 0.667969C8.20556 0.667969 8.42778 0.723635 8.59722 0.862802L15.6889 7.09852C15.9111 7.29297 16.025 7.51519 15.9944 7.76519Z" fill="#77B946"/>
</svg>
