<svg width="124" height="124" viewBox="0 0 124 124" fill="none" xmlns="http://www.w3.org/2000/svg">
<path d="M35.5758 99.813L36.3655 98.5377L35.5758 99.813ZM22.3935 87.3706L21.1665 88.2334L22.3935 87.3706ZM33.445 24.6946L32.5871 23.4642L33.445 24.6946ZM50.0879 17.5112L50.3937 18.9797L50.0879 17.5112ZM68.1002 18.4551C68.7586 17.9523 68.8848 17.011 68.3821 16.3526L60.1893 5.62276C59.6866 4.96432 58.7453 4.83811 58.0868 5.34086C57.4284 5.8436 57.3022 6.78493 57.8049 7.44336L65.0874 16.981L55.5497 24.2634C54.8913 24.7662 54.7651 25.7075 55.2678 26.3659C55.7706 27.0244 56.7119 27.1506 57.3704 26.6478L68.1002 18.4551ZM103.524 52.0652L102.058 52.3857L103.524 52.0652ZM16.0371 69.8304C15.3397 69.3834 14.4119 69.5863 13.9648 70.2837L6.67909 81.6489C6.232 82.3464 6.43494 83.2742 7.13237 83.7213C7.82979 84.1684 8.75761 83.9654 9.20469 83.268L15.6809 73.1656L25.7833 79.6418C26.4807 80.0889 27.4085 79.8859 27.8556 79.1885C28.3027 78.4911 28.0998 77.5633 27.4024 77.1162L16.0371 69.8304ZM96.1438 85.9478C96.3254 86.7561 97.1279 87.2641 97.9362 87.0825L111.108 84.1233C111.916 83.9417 112.424 83.1393 112.243 82.331C112.061 81.5227 111.259 81.0147 110.45 81.1963L98.7421 83.8267L96.1117 72.1185C95.9301 71.3103 95.1276 70.8022 94.3194 70.9838C93.5111 71.1654 93.0031 71.9679 93.1846 72.7761L96.1438 85.9478ZM48.6591 57.0479C48.1333 56.4077 47.188 56.3151 46.5479 56.8409C45.9077 57.3667 45.8151 58.312 46.3409 58.9521L48.6591 57.0479ZM57 69.5652L55.8409 70.5173L56.8909 71.7956L58.0607 70.6259L57 69.5652ZM75.5607 53.1259C76.1464 52.5401 76.1464 51.5903 75.5607 51.0046C74.9749 50.4188 74.0251 50.4188 73.4393 51.0046L75.5607 53.1259ZM51.822 104.418C46.166 103.421 40.9602 101.383 36.3655 98.5377L34.7861 101.088C39.6995 104.131 45.2638 106.308 51.3011 107.373L51.822 104.418ZM36.3655 98.5377C31.3054 95.4044 26.9838 91.2908 23.6206 86.5078L21.1665 88.2334C24.7593 93.3428 29.3769 97.7388 34.7861 101.088L36.3655 98.5377ZM34.3029 25.9251C39.0993 22.5808 44.5672 20.1934 50.3937 18.9797L49.782 16.0427C43.5533 17.3401 37.7108 19.8917 32.5871 23.4642L34.3029 25.9251ZM50.3937 18.9797C55.646 17.8857 61.4012 18.0002 66.9905 18.7496L67.3892 15.7762C61.5988 14.9998 55.478 14.8562 49.782 16.0427L50.3937 18.9797ZM68.3577 104.179C63.067 105.281 57.478 105.416 51.822 104.418L51.3011 107.373C57.3383 108.437 63.3118 108.294 68.9694 107.116L68.3577 104.179ZM95.1309 36.6507C98.4355 41.3503 100.814 46.6941 102.058 52.3857L104.989 51.7447C103.658 45.6569 101.115 39.9455 97.5849 34.9251L95.1309 36.6507ZM102.058 52.3857C103.231 57.7479 103.399 63.4219 102.387 69.1633L105.341 69.6842C106.423 63.5508 106.244 57.4821 104.989 51.7447L102.058 52.3857ZM22.4114 38.3418C25.5279 33.4192 29.5902 29.211 34.3029 25.9251L32.5871 23.4642C27.5527 26.9744 23.2101 31.4718 19.8767 36.7371L22.4114 38.3418ZM23.6206 86.5078C20.3159 81.8081 17.9379 76.4644 16.693 70.7727L13.7623 71.4138C15.0938 77.5016 17.6363 83.213 21.1665 88.2334L23.6206 86.5078ZM102.387 69.1633C101.375 74.9047 99.2761 80.179 96.34 84.8167L98.8747 86.4214C102.016 81.4592 104.26 75.8176 105.341 69.6842L102.387 69.1633ZM46.3409 58.9521L55.8409 70.5173L58.1591 68.6131L48.6591 57.0479L46.3409 58.9521ZM58.0607 70.6259L75.5607 53.1259L73.4393 51.0046L55.9393 68.5046L58.0607 70.6259Z" fill="#3B589A"/>
</svg>
