<svg width="216" height="60" fill="none" xmlns="http://www.w3.org/2000/svg"><path d="M84.13 31.913h-4.378l-1.08 3.156h-2.79l5.132-14.356h2.057l5.132 14.356H85.27l-1.14-3.156zm-3.665-2.24h3.054l-1.059-3.176-.427-2.24h-.102l-.428 2.26-1.038 3.156zm8.908-4.785h1.934l.306 1.222h.081c.353-.516.767-.896 1.242-1.14.489-.245 1.08-.367 1.772-.367 1.276 0 2.233.407 2.871 1.221.638.801.957 2.098.957 3.89 0 .869-.102 1.656-.305 2.362-.204.692-.51 1.283-.917 1.772a3.854 3.854 0 01-1.466 1.12c-.57.257-1.228.386-1.975.386-.42 0-.767-.033-1.038-.101a3.244 3.244 0 01-.815-.285v4.174h-2.647V24.888zm4.54 1.955c-.515 0-.922.129-1.221.387-.285.258-.51.644-.672 1.16v4.236c.19.15.394.271.61.366.232.082.53.123.897.123.76 0 1.33-.265 1.71-.795.38-.543.57-1.432.57-2.667 0-.896-.149-1.588-.448-2.077-.298-.489-.78-.733-1.445-.733zm9.817 4.011h-.713v4.215h-2.647V24.888h2.647v4.337l.631-.285 2.383-4.052h2.83l-2.464 3.869-1.038.774 1.14.794 2.749 4.744h-3.034l-2.484-4.215zm13.933-3.624h-2.83v7.84h-2.729v-7.84h-2.912v-2.342h8.471v2.342zm7.31 3.197l.102-1.446h-.061l-.876 1.486-3.625 4.602h-1.669V24.888h2.647v4.846l-.122 1.385h.081l.835-1.446 3.665-4.785h1.67v10.181h-2.647v-4.642zm8.327.427h-.713v4.215h-2.647V24.888h2.647v4.337l.631-.285 2.383-4.052h2.83l-2.464 3.869-1.038.774 1.14.794 2.749 4.744h-3.034l-2.484-4.215zm15.337-1.874h-.733v6.09h-2.79V20.814h2.79v6.313l.652-.285 3.93-6.028h3.176l-4.154 5.987-1.099.774 1.14.794 4.745 6.7h-3.442l-4.215-6.09zm7.879.999c0-1.724.421-3.048 1.262-3.971.842-.937 2.023-1.405 3.544-1.405.814 0 1.52.129 2.117.387a3.908 3.908 0 011.487 1.1c.394.46.685 1.024.876 1.69a7.51 7.51 0 01.305 2.199c0 1.724-.421 3.054-1.263 3.99-.828.924-2.002 1.386-3.522 1.386-.815 0-1.521-.13-2.118-.387a4.198 4.198 0 01-1.507-1.08c-.394-.475-.692-1.045-.896-1.71a7.99 7.99 0 01-.285-2.2zm2.729 0c0 .448.04.862.122 1.242.081.38.203.712.366.998.163.285.374.509.632.672.271.149.59.224.957.224.692 0 1.208-.252 1.547-.754.34-.502.509-1.296.509-2.382 0-.937-.156-1.69-.468-2.26-.312-.584-.842-.876-1.588-.876-.652 0-1.161.244-1.528.733-.366.488-.549 1.29-.549 2.403zm14.663 1.099h-3.319v3.991h-2.647V24.888h2.647v3.828h3.319v-3.828h2.647v10.181h-2.647v-3.99zm12.18 3.36c-.408.299-.903.523-1.487.672a6.417 6.417 0 01-1.771.245c-.815 0-1.507-.13-2.077-.387a3.58 3.58 0 01-1.365-1.08c-.353-.475-.611-1.045-.774-1.71a10.069 10.069 0 01-.224-2.2c0-1.724.387-3.047 1.161-3.97.774-.937 1.901-1.405 3.38-1.405.747 0 1.344.06 1.792.183a6.04 6.04 0 011.242.468l-.631 2.159a5.216 5.216 0 00-.936-.346 3.966 3.966 0 00-1.039-.122c-.733 0-1.29.244-1.67.733-.38.475-.57 1.242-.57 2.3 0 .435.048.835.143 1.202.095.367.237.686.427.957.19.272.435.489.733.652.313.149.672.224 1.08.224.448 0 .828-.055 1.14-.163.312-.122.59-.265.835-.428l.611 2.016zm1.539-8.96c.543-.244 1.188-.434 1.935-.57.747-.15 1.527-.224 2.342-.224.706 0 1.296.088 1.771.265.475.163.849.4 1.12.713.285.312.482.685.591 1.12.122.434.183.923.183 1.466 0 .597-.02 1.201-.061 1.812a38.33 38.33 0 00-.081 1.772c0 .583.02 1.154.061 1.71.04.543.142 1.059.305 1.548h-2.158l-.428-1.405h-.102c-.271.42-.651.787-1.14 1.1-.475.298-1.093.447-1.853.447-.475 0-.903-.068-1.283-.203a2.996 2.996 0 01-.978-.611 2.943 2.943 0 01-.631-.937 3.217 3.217 0 01-.224-1.222c0-.624.136-1.147.407-1.568.286-.434.686-.78 1.202-1.038.529-.272 1.154-.455 1.873-.55a12.789 12.789 0 012.444-.102c.095-.76.041-1.303-.163-1.629-.204-.34-.658-.509-1.364-.509a9.45 9.45 0 00-1.69.163c-.584.109-1.066.251-1.446.428l-.632-1.976zm3.36 7.575c.53 0 .951-.115 1.263-.346.312-.244.543-.502.692-.774V30.61a7.393 7.393 0 00-1.222-.02c-.38.027-.719.088-1.018.183a1.72 1.72 0 00-.712.407.909.909 0 00-.265.672c0 .38.108.679.326.896.23.204.543.305.936.305zm12.342-5.823h-2.016a95.05 95.05 0 01-.285 2.87 13.326 13.326 0 01-.529 2.566c-.231.747-.55 1.358-.957 1.833-.407.462-.937.693-1.589.693-.787 0-1.343-.102-1.669-.306l.326-2.2c.217.082.42.123.61.123.272 0 .509-.115.713-.346.204-.23.373-.645.509-1.242.15-.598.265-1.405.346-2.424a61.42 61.42 0 00.204-3.91h6.985V35.07h-2.648v-7.84zm12.272 0h-2.83v7.84h-2.729v-7.84h-2.912v-2.342h8.471v2.342z" fill="#5A76B6"/><path fill-rule="evenodd" clip-rule="evenodd" d="M25.55 50.182c1.687-2.258 3.21-4.411 4.86-6.465 1.134-1.41 2.524-2.617 3.656-4.029 2.772-3.454 5.76-6.753 7.784-10.756 1.748-3.455 2.67-7.08 2.167-10.93a15.485 15.485 0 00-2.652-6.865c-.265-.378-1.315-.504-1.88-.337-4.802 1.416-8.202 4.512-10.422 8.932-.345.687-.559 1.438-.833 2.16-.305.8-.105 1.044.806.946 1.62-.172 3.255-.225 4.884-.252.385-.007.771.292 1.158.451-.286.285-.595.55-.853.858-.925 1.1-1.928 2.15-2.728 3.334-2.877 4.255-5.134 8.807-6.424 13.803-.163.626-.452 1.22-.845 1.793-.148-5.193-.25-10.368 2.23-15.454h-5.623c.221-1.395.285-2.576.611-3.68.566-1.917 1.102-3.883 1.994-5.656 2.09-4.16 5.078-7.599 9.528-9.318 3.681-1.42 7.516-1.411 11.224.1 4.366 1.78 7.54 4.884 9.63 9.065 1.788 3.58 2.74 7.397 2.723 11.403-.025 6.003-1.59 11.582-5.279 16.38-3.331 4.333-7.617 7.42-12.934 9.044-2.658.813-5.352 1.351-8.103 1.268-8.141-.24-14.856-3.505-20.023-9.802C7.629 43.036 5.84 39.476 5 35.501c-.78-3.688-.798-7.38-.268-11.144.526-3.735 1.727-7.164 3.746-10.283 3.734-5.767 9.197-9.203 15.697-11.199 4.919-1.51 9.926-1.846 15.018-1.38.142.013.29-.02.5-.288-.984-.249-1.955-.611-2.955-.722-2.14-.238-4.303-.555-6.442-.471C20.29.398 12.132 4.51 5.949 12.383c-2.645 3.369-4.354 7.19-5.264 11.369-1.162 5.337-.862 10.606 1.028 15.716 1.619 4.378 3.994 8.344 7.335 11.673 4.134 4.12 9.047 6.89 14.789 8.01 2.636.511 5.364.927 8.03.831 4.81-.171 9.37-1.457 13.584-3.945 4.938-2.913 8.806-6.77 11.594-11.77 1.357-2.436 2.413-4.993 3.045-7.663.761-3.206.933-6.483.64-9.814-.348-3.953-1.47-7.611-3.417-11.028-2.752-4.83-6.763-8.198-12.069-9.983-2.583-.869-5.246-1.437-7.978-1.31-9.743.454-18.411 5.573-21.82 15.483-1.324 3.847-1.553 7.823-.692 11.92.961 4.571 2.856 8.639 5.47 12.445 1.545 2.25 3.442 4.166 5.326 5.865z" fill="#5A76B6"/><path d="M61.134 26.795c-.348-3.954-1.47-7.613-3.417-11.03-.158-.278-.322-.55-.49-.82-.063-.1-.127-.198-.191-.297a22.31 22.31 0 00-.317-.483 20.29 20.29 0 00-.833-1.151c-.07-.093-.143-.182-.215-.272-.125-.156-.249-.312-.377-.465l-.095-.108a21.302 21.302 0 00-1.64-1.72 22.841 22.841 0 013.2 4.358c1.947 3.417 3.069 7.075 3.417 11.029.292 3.33.12 6.608-.64 9.813-.633 2.672-1.688 5.228-3.047 7.664-2.786 5-6.656 8.857-11.592 11.77-4.215 2.488-8.775 3.773-13.585 3.944-2.666.096-5.394-.319-8.03-.832-5.553-1.081-10.328-3.711-14.376-7.61l.091.093c.15.157.3.314.455.467 4.134 4.12 9.046 6.89 14.789 8.009 2.306.448 4.683.822 7.027.845.335.003.67 0 1.003-.013 4.81-.171 9.37-1.457 13.584-3.945 4.32-2.548 7.822-5.82 10.498-9.948.381-.589.747-1.197 1.096-1.821 1.357-2.437 2.413-4.993 3.045-7.665.76-3.204.933-6.482.64-9.812z" fill="#294481"/><path d="M43.47 17.051c.503 3.848-.42 7.474-2.167 10.929-2.024 4.003-5.013 7.303-7.785 10.757-1.133 1.412-2.522 2.618-3.656 4.028-1.649 2.055-3.173 4.209-4.86 6.466a54.605 54.605 0 01-1.311-1.223c.357.37.72.728 1.084 1.078.038.036.076.071.113.108.35.332.699.657 1.05.974.007.007.015.015.023.02 1.265-1.692 2.439-3.327 3.642-4.905a84.57 84.57 0 011.218-1.56c1.133-1.41 2.523-2.616 3.656-4.027 2.598-3.24 5.388-6.341 7.394-10.014.134-.245.264-.493.39-.743 1.748-3.456 2.67-7.08 2.167-10.93a15.469 15.469 0 00-2.653-6.864.5.5 0 00-.082-.088l-.022-.017a.784.784 0 00-.106-.073l-.003-.002a1.099 1.099 0 00-.147-.069l-.007-.003a1.682 1.682 0 00-.167-.057 15.477 15.477 0 012.228 6.215z" fill="#294481"/><path d="M43.652 7.866c-3.708-1.512-7.543-1.52-11.223-.1-4.451 1.718-7.44 5.158-9.53 9.317-.89 1.774-1.427 3.74-1.993 5.658-.325 1.103-1.398 4.248.348 4.636.052-.33.095-.648.136-.956v-.002c.036-.279.07-.548.106-.812.023-.173.048-.343.074-.511l.015-.107c.03-.193.066-.38.104-.565l.032-.154c.041-.185.086-.37.138-.549l.006-.022c.566-1.917 1.102-3.883 1.994-5.658 2.09-4.16 5.077-7.598 9.528-9.317 1.84-.71 3.72-1.064 5.602-1.05 1.882.013 3.768.394 5.622 1.15.072.029.14.062.213.092.191.08.383.162.57.248.167.076.329.158.493.24.087.043.176.084.263.128.197.1.389.208.58.315.048.027.097.05.144.078.212.121.42.249.626.378l.07.042c.22.14.435.285.648.432l.021.016c.66.46 1.282.964 1.867 1.507-1.758-1.898-3.9-3.394-6.454-4.434z" fill="#294481"/><path d="M23.626 1.922c-6.5 1.996-11.963 5.432-15.697 11.199-2.02 3.119-3.22 6.548-3.746 10.284-.53 3.763-.511 7.456.269 11.144.84 3.975 2.628 7.534 5.205 10.675a29.67 29.67 0 002.468 2.653 31.596 31.596 0 01-1.51-1.695c-2.416-2.944-4.138-6.257-5.037-9.935-.06-.245-.116-.492-.168-.74-.78-3.687-.798-7.38-.268-11.143.132-.935.305-1.85.523-2.745.654-2.688 1.708-5.2 3.222-7.54 3.735-5.767 9.198-9.203 15.697-11.199 3.69-1.133 7.429-1.605 11.216-1.572a45.585 45.585 0 013.856.196c.127-.003.262-.056.446-.29-.861-.219-1.712-.523-2.58-.67a6.101 6.101 0 00-.374-.054 92.058 92.058 0 01-.921-.106c-4.26-.17-8.463.266-12.601 1.538zm1.014 40.906a131.54 131.54 0 01-.06-3.24c-.001-.18-.002-.36-.001-.54l.003-.387a66.454 66.454 0 01.019-.899 45.653 45.653 0 01.07-1.504c.007-.091.012-.183.018-.274.022-.29.047-.58.077-.867.008-.087.019-.173.029-.26.023-.21.048-.42.075-.63l.046-.326a25.536 25.536 0 01.269-1.527c.018-.089.035-.178.055-.267a21.1 21.1 0 01.21-.878c.014-.055.03-.11.046-.165.064-.24.132-.478.206-.716.03-.1.064-.2.096-.3a21.246 21.246 0 01.557-1.515l.116-.283c.127-.292.258-.584.4-.877h-1.394c-2.032 4.778-1.728 10.861-.836 15.455zm8.728-21.194c-1.575.026-3.155.078-4.722.237l-.01.026c-.266.701-.146.975.498.968.092-.002.194-.008.308-.02.39-.041.78-.076 1.17-.104.212-.016.424-.027.636-.04.173-.01.346-.021.52-.03.283-.015.568-.024.852-.034l.29-.011c.33-.01.662-.018.992-.025l.092-.001h.001l.332-.007c.384-.007.771.292 1.157.45-.192-1.19-1.732-1.415-2.116-1.409z" fill="#294481"/></svg>