<svg width="216" height="60" viewBox="0 0 216 60" fill="none" xmlns="http://www.w3.org/2000/svg">
<path d="M84.1299 31.9131H79.7518L78.6726 35.0694H75.8828L81.0143 20.7134H83.071L88.2025 35.0694H85.2702L84.1299 31.9131ZM80.4645 29.6732H83.519L82.4601 26.4965L82.0325 24.2566H81.9307L81.503 26.5169L80.4645 29.6732Z" fill="#5A76B6"/>
<path d="M89.3728 24.8878H91.3073L91.6127 26.1096H91.6942C92.0471 25.5937 92.4612 25.2136 92.9363 24.9693C93.425 24.7249 94.0156 24.6027 94.7079 24.6027C95.984 24.6027 96.9411 25.01 97.5791 25.8245C98.2171 26.6255 98.5362 27.9219 98.5362 29.7139C98.5362 30.5827 98.4344 31.3701 98.2307 32.076C98.0271 32.7684 97.7216 33.3589 97.3144 33.8476C96.9207 34.3363 96.432 34.7096 95.8482 34.9676C95.2781 35.2255 94.6197 35.3545 93.873 35.3545C93.4522 35.3545 93.106 35.3205 92.8345 35.2527C92.563 35.1984 92.2915 35.1033 92.02 34.9676V39.142H89.3728V24.8878ZM93.9137 26.8427C93.3979 26.8427 92.9906 26.9717 92.692 27.2296C92.4069 27.4875 92.1829 27.8744 92.02 28.3903V32.6258C92.21 32.7751 92.4137 32.8973 92.6309 32.9924C92.8616 33.0738 93.1603 33.1145 93.5268 33.1145C94.2871 33.1145 94.8572 32.8498 95.2373 32.3204C95.6175 31.7774 95.8075 30.8882 95.8075 29.6528C95.8075 28.7568 95.6582 28.0645 95.3595 27.5758C95.0609 27.087 94.5789 26.8427 93.9137 26.8427Z" fill="#5A76B6"/>
<path d="M103.73 30.8542H103.017V35.0694H100.37V24.8878H103.017V29.2252L103.648 28.9401L106.031 24.8878H108.861L106.397 28.7568L105.359 29.5306L106.499 30.3248L109.248 35.0694H106.214L103.73 30.8542Z" fill="#5A76B6"/>
<path d="M117.663 27.2296H114.833V35.0694H112.104V27.2296H109.192V24.8878H117.663V27.2296Z" fill="#5A76B6"/>
<path d="M124.973 30.4266L125.075 28.9808H125.014L124.138 30.4673L120.513 35.0694H118.844V24.8878H121.491V29.7343L121.369 31.1189H121.45L122.285 29.6732L125.95 24.8878H127.62V35.0694H124.973V30.4266Z" fill="#5A76B6"/>
<path d="M133.3 30.8542H132.587V35.0694H129.94V24.8878H132.587V29.2252L133.218 28.9401L135.601 24.8878H138.431L135.967 28.7568L134.929 29.5306L136.069 30.3248L138.818 35.0694H135.784L133.3 30.8542Z" fill="#5A76B6"/>
<path d="M148.637 28.9808H147.904V35.0694H145.114V20.8152H147.904V27.1278L148.556 26.8427L152.486 20.8152H155.662L151.508 26.802L150.409 27.5758L151.549 28.3699L156.294 35.0694H152.852L148.637 28.9808Z" fill="#5A76B6"/>
<path d="M156.516 29.9786C156.516 28.2545 156.937 26.9309 157.778 26.0078C158.62 25.0711 159.801 24.6027 161.322 24.6027C162.136 24.6027 162.842 24.7317 163.439 24.9896C164.037 25.2476 164.532 25.6141 164.926 26.0892C165.32 26.5508 165.611 27.1142 165.802 27.7794C166.005 28.4446 166.107 29.1777 166.107 29.9786C166.107 31.7027 165.686 33.0331 164.844 33.9698C164.016 34.8929 162.842 35.3545 161.322 35.3545C160.507 35.3545 159.801 35.2255 159.204 34.9676C158.607 34.7096 158.104 34.3499 157.697 33.8883C157.303 33.4132 157.005 32.843 156.801 32.1778C156.611 31.5126 156.516 30.7796 156.516 29.9786ZM159.245 29.9786C159.245 30.4266 159.285 30.8406 159.367 31.2208C159.448 31.6009 159.57 31.9335 159.733 32.2186C159.896 32.5036 160.107 32.7276 160.365 32.8905C160.636 33.0399 160.955 33.1145 161.322 33.1145C162.014 33.1145 162.53 32.8634 162.869 32.3611C163.209 31.8588 163.378 31.0646 163.378 29.9786C163.378 29.0419 163.222 28.2885 162.91 27.7183C162.598 27.1346 162.068 26.8427 161.322 26.8427C160.67 26.8427 160.161 27.087 159.794 27.5758C159.428 28.0645 159.245 28.8654 159.245 29.9786Z" fill="#5A76B6"/>
<path d="M173.908 31.0782H170.589V35.0694H167.942V24.8878H170.589V28.7161H173.908V24.8878H176.555V35.0694H173.908V31.0782Z" fill="#5A76B6"/>
<path d="M186.088 34.4381C185.68 34.7368 185.185 34.9608 184.601 35.1101C184.031 35.273 183.44 35.3545 182.83 35.3545C182.015 35.3545 181.323 35.2255 180.753 34.9676C180.196 34.7096 179.741 34.3499 179.388 33.8883C179.035 33.4132 178.777 32.843 178.614 32.1778C178.465 31.5126 178.39 30.7796 178.39 29.9786C178.39 28.2545 178.777 26.9309 179.551 26.0078C180.325 25.0711 181.452 24.6027 182.931 24.6027C183.678 24.6027 184.275 24.6638 184.723 24.786C185.185 24.9082 185.599 25.0643 185.965 25.2544L185.334 27.4129C185.022 27.2635 184.71 27.1481 184.398 27.0667C184.099 26.9852 183.753 26.9445 183.359 26.9445C182.626 26.9445 182.069 27.1889 181.689 27.6776C181.309 28.1527 181.119 28.9197 181.119 29.9786C181.119 30.413 181.167 30.8135 181.262 31.18C181.357 31.5466 181.499 31.8656 181.689 32.1371C181.879 32.4086 182.124 32.6258 182.422 32.7887C182.735 32.938 183.094 33.0127 183.502 33.0127C183.95 33.0127 184.33 32.9584 184.642 32.8498C184.954 32.7276 185.232 32.5851 185.477 32.4222L186.088 34.4381Z" fill="#5A76B6"/>
<path d="M187.627 25.4784C188.17 25.234 188.815 25.0439 189.562 24.9082C190.309 24.7589 191.089 24.6842 191.904 24.6842C192.61 24.6842 193.2 24.7724 193.675 24.9489C194.15 25.1118 194.524 25.3494 194.795 25.6616C195.08 25.9739 195.277 26.3472 195.386 26.7816C195.508 27.216 195.569 27.7047 195.569 28.2477C195.569 28.8451 195.549 29.4492 195.508 30.0601C195.467 30.6574 195.44 31.2479 195.427 31.8317C195.427 32.4154 195.447 32.9856 195.488 33.5422C195.528 34.0852 195.63 34.601 195.793 35.0898H193.635L193.207 33.6847H193.105C192.834 34.1055 192.454 34.4721 191.965 34.7843C191.49 35.083 190.872 35.2323 190.112 35.2323C189.637 35.2323 189.209 35.1644 188.829 35.0287C188.449 34.8793 188.123 34.6757 187.851 34.4178C187.58 34.1463 187.37 33.834 187.22 33.4811C187.071 33.1145 186.996 32.7073 186.996 32.2593C186.996 31.6348 187.132 31.1122 187.403 30.6913C187.689 30.2569 188.089 29.9107 188.605 29.6528C189.134 29.3813 189.759 29.198 190.478 29.103C191.211 28.9944 192.026 28.9605 192.922 29.0012C193.017 28.241 192.963 27.6979 192.759 27.3721C192.555 27.0327 192.101 26.863 191.395 26.863C190.865 26.863 190.302 26.9173 189.705 27.026C189.121 27.1346 188.639 27.2771 188.259 27.4536L187.627 25.4784ZM190.987 33.0534C191.517 33.0534 191.938 32.9381 192.25 32.7073C192.562 32.4629 192.793 32.205 192.942 31.9335V30.6099C192.521 30.5691 192.114 30.5624 191.72 30.5895C191.34 30.6167 191.001 30.6777 190.702 30.7728C190.404 30.8678 190.166 31.0036 189.99 31.18C189.813 31.3565 189.725 31.5805 189.725 31.852C189.725 32.2321 189.833 32.5308 190.051 32.748C190.281 32.9516 190.594 33.0534 190.987 33.0534Z" fill="#5A76B6"/>
<path d="M203.329 27.2296H201.313C201.232 28.1934 201.137 29.1505 201.028 30.1008C200.92 31.0511 200.743 31.9063 200.499 32.6665C200.268 33.4132 199.949 34.0241 199.542 34.4992C199.135 34.9608 198.605 35.1916 197.953 35.1916C197.166 35.1916 196.61 35.0898 196.284 34.8861L196.61 32.6869C196.827 32.7684 197.03 32.8091 197.22 32.8091C197.492 32.8091 197.729 32.6937 197.933 32.4629C198.137 32.2321 198.306 31.8181 198.442 31.2208C198.592 30.6234 198.707 29.8157 198.788 28.7975C198.883 27.7658 198.951 26.4626 198.992 24.8878H205.977V35.0694H203.329V27.2296Z" fill="#5A76B6"/>
<path d="M215.601 27.2296H212.771V35.0694H210.042V27.2296H207.13V24.8878H215.601V27.2296Z" fill="#5A76B6"/>
<path fill-rule="evenodd" clip-rule="evenodd" d="M25.5505 50.1824C27.2372 47.9242 28.7609 45.7706 30.4103 43.7169C31.5435 42.3065 32.9336 41.0995 34.066 39.6883C36.8384 36.234 39.8264 32.9347 41.8505 28.9316C43.5985 25.4765 44.5203 21.8513 44.017 18.0024C43.6939 15.5384 42.7974 13.1909 41.3647 11.1372C41.0996 10.7593 40.0496 10.6331 39.4843 10.7999C34.6833 12.216 31.2833 15.3116 29.0632 19.7323C28.7178 20.4186 28.5044 21.1698 28.23 21.8919C27.9252 22.6918 28.1249 22.9357 29.0356 22.8383C30.6555 22.6658 32.2907 22.6131 33.9203 22.5859C34.3046 22.579 34.6914 22.8781 35.0778 23.0372C34.7925 23.3217 34.4828 23.5867 34.2247 23.8952C33.3001 24.9943 32.2972 26.0443 31.4972 27.229C28.6196 31.4837 26.3626 36.0359 25.0728 41.0321C24.9104 41.6576 24.6206 42.2513 24.2278 42.8252C24.0804 37.6318 23.9777 32.4574 26.4584 27.3706C24.5382 27.3706 22.7926 27.3706 20.8347 27.3706C21.0563 25.9757 21.12 24.7954 21.4463 23.6919C22.0121 21.7742 22.5483 19.8081 23.44 18.0345C25.5298 13.8744 28.5178 10.4363 32.9685 8.71741C36.6493 7.29729 40.4843 7.30583 44.1919 8.81646C48.5578 10.5966 51.7325 13.7007 53.8211 17.8823C55.6102 21.4629 56.5627 25.2788 56.5453 29.2855C56.5201 35.2879 54.9555 40.8673 51.2662 45.6655C47.9348 49.9981 43.6485 53.0859 38.3316 54.7094C35.674 55.5215 32.9795 56.0601 30.2289 55.9773C22.0876 55.7362 15.3726 52.4719 10.2055 46.1753C7.62862 43.0363 5.84078 39.476 5.00023 35.501C4.22056 31.8133 4.20229 28.1207 4.73235 24.3571C5.25835 20.6223 6.45891 17.1927 8.4781 14.0736C12.2121 8.30667 17.675 4.8706 24.1746 2.87496C29.0937 1.36432 34.1013 1.0287 39.1929 1.49545C39.3353 1.50762 39.4827 1.47595 39.6921 1.20686C38.7087 0.958065 37.7378 0.595624 36.7378 0.484823C34.5976 0.246579 32.4352 -0.0696055 30.2959 0.0135971C20.2908 0.397953 12.1321 4.51104 5.94873 12.3828C3.3037 15.7515 1.5946 19.5731 0.68505 23.7515C-0.477351 29.0887 -0.177008 34.3576 1.71271 39.4683C3.33171 43.846 5.70725 47.8117 9.04834 51.1415C13.1821 55.261 18.0947 58.031 23.8369 59.1504C26.473 59.6622 29.2008 60.0778 31.867 59.9824C36.6773 59.8108 41.2364 58.5254 45.4513 56.037C50.3887 53.1245 54.2574 49.2672 57.0449 44.2673C58.4021 41.8313 59.4582 39.2743 60.0905 36.6041C60.8511 33.3982 61.0228 30.1212 60.7306 26.7903C60.3824 22.8375 59.2601 19.1786 57.3128 15.7621C54.5614 10.9318 50.5498 7.56434 45.2443 5.77853C42.6606 4.90997 39.9981 4.34217 37.2662 4.46961C27.523 4.92256 18.8549 10.0422 15.4452 19.9522C14.1221 23.7986 13.8928 27.7749 14.754 31.8721C15.7151 36.443 17.6105 40.5106 20.2243 44.3168C21.7694 46.5677 23.6664 48.4834 25.5505 50.1824Z" fill="#5A76B6"/>
<path d="M61.1344 26.7947C60.7862 22.8412 59.6639 19.1823 57.7166 15.7657C57.5587 15.4868 57.3947 15.2149 57.2279 14.945C57.1642 14.8448 57.0997 14.7474 57.0359 14.6479C56.9316 14.4852 56.8269 14.3241 56.719 14.165C56.6349 14.0408 56.5481 13.9182 56.4624 13.7956C56.3748 13.6714 56.2859 13.548 56.1962 13.4267C56.0939 13.2879 55.9908 13.1491 55.8857 13.0139C55.8155 12.9214 55.7432 12.8317 55.671 12.742C55.5464 12.5857 55.4222 12.4298 55.2939 12.2772C55.2619 12.2407 55.2302 12.205 55.1994 12.1685C54.6815 11.5629 54.1368 10.9895 53.5613 10.4513C53.5613 10.4505 53.5605 10.4492 53.5597 10.4492C54.7675 11.7354 55.8358 13.1864 56.7583 14.807C58.7057 18.224 59.8279 21.8825 60.1761 25.8356C60.4683 29.1666 60.2967 32.4444 59.5361 35.6491C58.9033 38.3205 57.8477 40.8775 56.4892 43.3127C53.703 48.3134 49.833 52.1699 44.8969 55.0832C40.682 57.5708 36.122 58.8557 31.3121 59.0274C28.646 59.1228 25.9177 58.7084 23.2816 58.1954C17.729 57.1138 12.9544 54.4837 8.90625 50.585C8.93628 50.6166 8.96754 50.6475 8.99716 50.6783C9.14774 50.8354 9.29791 50.9917 9.45214 51.1451C13.5859 55.2654 18.4985 58.0355 24.2407 59.1536C26.5468 59.6021 28.924 59.9759 31.2679 59.9991C31.6031 60.0019 31.9376 59.9983 32.2708 59.9857C37.0807 59.8148 41.6402 58.529 45.8551 56.0414C50.1756 53.4926 53.677 50.2213 56.3525 46.0929C56.7344 45.504 57.1005 44.8956 57.4487 44.2717C58.8059 41.8353 59.862 39.2791 60.4943 36.6073C61.2549 33.4026 61.4266 30.1248 61.1344 26.7947Z" fill="#294481"/>
<path d="M43.4694 17.051C43.9727 20.8994 43.0498 24.5247 41.3029 27.9798C39.2789 31.9829 36.2897 35.283 33.5184 38.7373C32.3852 40.1489 30.9959 41.3547 29.8619 42.7651C28.2133 44.8196 26.6889 46.9736 25.0025 49.2314C24.5634 48.8353 24.1234 48.4253 23.6875 48.0052C23.6887 48.0061 23.6899 48.0073 23.6907 48.0081C24.0479 48.3774 24.4107 48.7358 24.7752 49.0861C24.8126 49.1218 24.8507 49.1571 24.8876 49.194C25.2371 49.5256 25.587 49.8515 25.9376 50.1677C25.9453 50.1754 25.953 50.1832 25.9607 50.1888C27.2262 48.496 28.3996 46.8615 29.603 45.2835C30.004 44.7571 30.4086 44.2376 30.821 43.7238C31.9542 42.313 33.3443 41.1068 34.4766 39.696C37.075 36.4563 39.8645 33.3547 41.8707 29.6816C42.0047 29.4369 42.1349 29.1889 42.2612 28.9393C44.0092 25.4829 44.931 21.8589 44.4277 18.0093C44.1046 15.5449 43.2081 13.1981 41.7745 11.1449C41.7526 11.114 41.7242 11.084 41.693 11.0572C41.6856 11.0515 41.6792 11.0454 41.671 11.0398C41.6394 11.0138 41.6049 10.9898 41.5651 10.9667C41.5639 10.9667 41.5627 10.9655 41.5615 10.9646C41.5172 10.9395 41.4677 10.9164 41.4149 10.8961C41.4129 10.8953 41.4105 10.894 41.408 10.8932C41.3549 10.8721 41.2993 10.8527 41.2412 10.8364C42.426 12.729 43.1801 14.8423 43.4694 17.051Z" fill="#294481"/>
<path d="M43.652 7.86566C39.944 6.35421 36.1086 6.3453 32.4286 7.76542C27.9779 9.48427 24.9895 12.9236 22.8997 17.0825C22.0084 18.8565 21.4722 20.8234 20.9061 22.7407C20.5805 23.8438 19.5078 26.9889 21.2535 27.3773C21.3058 27.0473 21.3493 26.7291 21.3899 26.4207C21.3899 26.4198 21.3899 26.4198 21.3899 26.419C21.4264 26.1402 21.4609 25.8711 21.4962 25.6069C21.5193 25.4344 21.5437 25.264 21.5696 25.0959C21.5749 25.0614 21.5798 25.0237 21.5851 24.9892C21.6159 24.7964 21.6508 24.6093 21.689 24.4242C21.6987 24.3722 21.7101 24.3211 21.7214 24.27C21.7624 24.0849 21.8067 23.9006 21.859 23.7213C21.8611 23.7135 21.8627 23.7058 21.8647 23.6989C22.4305 21.7816 22.967 19.816 23.8587 18.0407C25.9485 13.8818 28.9361 10.4429 33.3873 8.72365C35.2275 8.01338 37.1066 7.6603 38.9886 7.6741C40.871 7.6875 42.7567 8.0682 44.6107 8.82393C44.6825 8.85274 44.7519 8.88559 44.8238 8.91644C45.0153 8.9968 45.2069 9.07756 45.394 9.1636C45.5608 9.24031 45.7228 9.3223 45.8867 9.40348C45.9736 9.4469 46.0633 9.4875 46.1497 9.53174C46.3466 9.6328 46.5386 9.73997 46.7301 9.84711C46.7776 9.8739 46.8267 9.89784 46.8738 9.92504C47.0861 10.0464 47.2935 10.1738 47.4997 10.3029C47.5228 10.3175 47.5467 10.3309 47.5699 10.3455C47.7899 10.4851 48.005 10.63 48.2176 10.7774C48.2245 10.7822 48.2322 10.7871 48.2391 10.7928C48.8995 11.2534 49.5213 11.7567 50.1065 12.2998C48.3479 10.4023 46.2058 8.9059 43.652 7.86566Z" fill="#294481"/>
<path d="M23.6257 1.92198C17.1257 3.91762 11.6631 7.35368 7.92876 13.121C5.90957 16.2397 4.70942 19.6693 4.18342 23.4053C3.65295 27.1681 3.67202 30.8607 4.45169 34.5492C5.29224 38.5242 7.07968 42.0833 9.65693 45.2235C10.4427 46.1809 11.2682 47.0592 12.1254 47.8766C11.8827 47.6213 11.6412 47.364 11.4046 47.0978C11.1375 46.8007 10.8733 46.4963 10.6152 46.1817C8.19906 43.2384 6.47737 39.9249 5.57838 36.2469C5.51872 36.0022 5.46231 35.755 5.40995 35.5074C4.63028 31.8197 4.61201 28.1271 5.14207 24.3635C5.27357 23.4292 5.44729 22.514 5.66524 21.6195C6.31909 18.9315 7.37312 16.4183 8.887 14.0793C12.6218 8.31194 18.0848 4.87589 24.5839 2.88024C28.2732 1.74747 32.0129 1.27503 35.8 1.3079C37.0619 1.31764 38.3298 1.38421 39.6026 1.50069C39.62 1.50272 39.6379 1.5035 39.6562 1.5035C39.7832 1.50147 39.9184 1.44752 40.1018 1.21333C39.2406 0.995383 38.3903 0.690993 37.5217 0.543257C37.3975 0.522152 37.2729 0.503856 37.1475 0.490463C36.8654 0.459617 36.5829 0.426766 36.2992 0.393079C36.2753 0.391049 36.2509 0.388219 36.227 0.384161C31.9666 0.214508 27.7643 0.650395 23.6257 1.92198Z" fill="#294481"/>
<path d="M24.6408 42.8284C24.6104 41.7464 24.5828 40.666 24.5791 39.588C24.5787 39.4078 24.5775 39.2284 24.5787 39.0482C24.5791 38.9191 24.5807 38.7896 24.5824 38.6606C24.5844 38.4909 24.5868 38.3213 24.5901 38.1516C24.5933 38.0213 24.5966 37.8923 24.6006 37.762C24.6059 37.5875 24.612 37.4142 24.6193 37.2396C24.6237 37.1163 24.629 36.9937 24.6351 36.8703C24.6457 36.667 24.6583 36.4624 24.6716 36.2579C24.6781 36.1666 24.683 36.0748 24.6895 35.9843C24.711 35.6941 24.7362 35.4047 24.7658 35.1166C24.7743 35.0297 24.7849 34.9441 24.795 34.8572C24.8182 34.647 24.8429 34.4368 24.8705 34.2269C24.8847 34.1186 24.901 34.009 24.9164 33.901C24.944 33.7082 24.974 33.5171 25.0061 33.3243C25.0243 33.2155 25.043 33.1055 25.0629 32.9967C25.1002 32.7893 25.1412 32.5819 25.1847 32.3737C25.2029 32.2852 25.2196 32.1964 25.2395 32.1067C25.3036 31.8144 25.373 31.5214 25.4493 31.2292C25.4643 31.1744 25.4809 31.1184 25.4964 31.0636C25.5601 30.8245 25.6283 30.5863 25.7021 30.348C25.7326 30.2478 25.7659 30.1475 25.7979 30.0485C25.8621 29.8505 25.929 29.6532 25.9996 29.4555C26.0378 29.3492 26.0759 29.2433 26.1157 29.1381C26.1916 28.9356 26.272 28.7331 26.3552 28.5326C26.3941 28.4384 26.4311 28.3447 26.4712 28.2501C26.5975 27.9583 26.7294 27.6661 26.8714 27.373C26.3978 27.373 25.9351 27.373 25.4769 27.373C23.4451 32.1509 23.7487 38.2344 24.6408 42.8284Z" fill="#294481"/>
<path d="M33.3679 21.6344C31.7932 21.6596 30.2131 21.7123 28.6465 21.8714C28.6428 21.88 28.64 21.8889 28.6367 21.8974C28.3701 22.5984 28.4898 22.8723 29.1339 22.8646C29.2256 22.8634 29.3283 22.8569 29.4424 22.8443C29.8312 22.8038 30.222 22.7693 30.6121 22.7412C30.8235 22.7246 31.0358 22.714 31.2477 22.7015C31.421 22.6909 31.5943 22.6795 31.7684 22.6706C32.0513 22.6564 32.3358 22.6467 32.6203 22.6369C32.7169 22.6333 32.8131 22.6292 32.9105 22.6256C33.2409 22.6158 33.5717 22.6081 33.9024 22.6012C33.9329 22.6012 33.9633 22.6004 33.9942 22.5996H33.995C34.1058 22.5976 34.2162 22.5947 34.327 22.5927C34.7113 22.5858 35.0981 22.8849 35.4845 23.0428C35.2917 21.8524 33.7519 21.6275 33.3679 21.6344Z" fill="#294481"/>
</svg>
