<svg width="124" height="124" viewBox="0 0 124 124" fill="none" xmlns="http://www.w3.org/2000/svg">
<rect width="124" height="124" fill="white"/>
<path d="M17.4103 30.0984C16.469 30.8593 15 31.8617 15 32.0466C15 35.943 15.0001 39.3523 15 42.2746C14.9999 45.1969 16.0144 43.8482 16.2051 43.2487M17.4103 30.0984C24.9404 24.2021 36.6923 15 36.6923 15M17.4103 30.0984C21.7401 30.0984 28.4974 30.0984 28.4974 30.0984M36.6923 15L91.6461 30.0984M36.6923 15L41.0308 30.0984M36.6923 15L28.4974 30.0984M91.6461 30.0984C91.6461 30.0984 99.841 30.0984 103.697 30.0984C105.626 30.0984 105.626 30.0984 104.662 31.0725M91.6461 30.0984V44.2228M91.6461 30.0984L79.1128 44.2228M91.6461 30.0984H79.1128M91.6461 44.2228H103.697C103.697 44.2228 105.626 44.2228 105.626 42.2746C105.626 38.2803 105.626 36.0409 105.626 32.0466C105.626 30.0984 105.144 29.6114 104.662 31.0725M91.6461 44.2228C91.6461 44.2228 99.5787 36.208 104.662 31.0725M91.6461 44.2228H85.3795M79.1128 44.2228V30.0984M79.1128 44.2228H66.5795M79.1128 44.2228H85.3795M79.1128 30.0984L66.5795 44.2228M79.1128 30.0984H66.5795M66.5795 44.2228V30.0984M66.5795 44.2228H54.0462M66.5795 30.0984L54.0462 44.2228M66.5795 30.0984H54.0462M54.0462 44.2228V30.0984M54.0462 44.2228H50.6718M54.0462 30.0984L41.0308 44.2228M54.0462 30.0984H41.0308M41.0308 44.2228V30.0984M41.0308 44.2228H28.4974M41.0308 44.2228V69.0622M41.0308 44.2228H50.6718M41.0308 30.0984L28.4974 44.2228M41.0308 30.0984H28.4974M28.4974 44.2228C28.4974 44.2228 21.7486 44.2228 17.4103 44.2228C14.9999 44.2228 14.9999 44.2228 16.2051 43.2487M28.4974 44.2228V30.0984M28.4974 44.2228V69.0622M28.4974 30.0984C28.4974 30.0984 21.0056 38.1132 16.2051 43.2487M28.9795 108.269C28.7912 107.984 28.4974 109.974 28.4974 107.539C28.4974 102.594 28.4974 94.8756 28.4974 94.8756M28.9795 108.269C28.0154 109 29.1222 109 29.4615 109C33.318 109 35.9251 109 40.0667 109C41.0308 109 41.0308 107.539 41.0308 107.539V94.8756M28.9795 108.269C33.6858 103.039 41.0308 94.8756 41.0308 94.8756M41.0308 94.8756H28.4974M41.0308 94.8756V81.7254M28.4974 94.8756L41.0308 81.7254M28.4974 94.8756V81.7254M41.0308 81.7254H28.4974M41.0308 81.7254V69.0622M28.4974 81.7254L41.0308 69.0622M28.4974 81.7254V69.0622M41.0308 69.0622H28.4974M41.0308 69.0622C41.0308 69.0622 46.0254 69.0622 49.2256 69.0622C50.6718 69.0622 50.6718 67.601 50.6718 67.601V44.2228M85.3795 44.2228C85.3795 44.2228 85.3795 49.2691 85.3795 52.5026M85.3795 52.5026C82.9692 52.5026 81.7389 54.516 82.0051 56.399C82.231 57.9967 83.4513 59.3212 85.3795 59.3212M85.3795 52.5026C88.0313 52.5026 89.3966 54.9378 88.7538 56.886C88.346 58.1223 87.3077 59.3212 85.3795 59.3212M85.3795 59.3212C85.3795 62.5547 85.3795 67.601 85.3795 67.601M85.3795 67.601C85.3795 67.601 71.4 67.601 65.6154 67.601C63.6872 67.601 63.6872 69.5492 63.6872 69.5492V72.9585C63.6872 72.9585 63.6872 74.9067 65.6154 74.9067C81.8051 74.9067 90.8821 74.9067 107.072 74.9067C109 74.9067 109 72.9585 109 72.9585V69.0622C109 69.0622 109 67.601 107.072 67.601C98.6004 67.601 85.3795 67.601 85.3795 67.601ZM85.3795 88.544C85.3795 88.544 73.3338 88.544 65.6154 88.544C63.6872 88.544 63.6872 90.4922 63.6872 90.4922V107.052C63.6872 107.052 63.6872 109 65.6154 109C81.8051 109 90.8821 109 107.072 109C109 109 109 107.052 109 107.052V90.0052C109 90.0052 109 88.544 107.072 88.544C98.6004 88.544 85.3795 88.544 85.3795 88.544Z" stroke="url(#paint0_linear_1872_12296)" stroke-width="3"/>
<defs>
<linearGradient id="paint0_linear_1872_12296" x1="15" y1="14.513" x2="109.482" y2="108.026" gradientUnits="userSpaceOnUse">
<stop stop-color="#6B9B3C"/>
<stop offset="1" stop-color="#396D05"/>
</linearGradient>
</defs>
</svg>
