<svg width="124" height="124" viewBox="0 0 124 124" fill="none" xmlns="http://www.w3.org/2000/svg">
<rect width="124" height="124" fill="white"/>
<path d="M69.9952 94.1848C79.5676 94.1848 79.4014 82.4348 69.9952 82.4348C65.418 82.4348 56.8052 82.4348 56.8052 82.4348C56.8052 82.4348 50.0119 77.837 41.7406 77.837C33.8123 77.837 27.5416 81.9239 27.5416 81.9239M69.9952 94.1848C62.4444 94.1848 55.2375 94.1848 55.2375 94.1848M69.9952 94.1848C72.24 94.1848 80.3206 94.1848 80.3206 94.1848L92.6009 84.2228C92.6009 84.2228 93.9073 82.9457 98.6104 79.8804C106.401 74.8031 112.72 81.9239 106.449 88.5652C95.4211 100.245 90.2494 105.424 90.2494 105.424C90.2494 105.424 87.114 109 80.3206 109C69.9952 109 41.7406 109 41.7406 109L27.5416 103.38M27.5416 103.38V81.9239M27.5416 103.38V106.446C27.5416 106.446 27.5416 107.978 26.4964 107.978C22.4149 107.978 20.1266 107.978 16.0451 107.978C15 107.978 15 106.446 15 106.446V78.3478C15 78.3478 15 76.8152 16.0451 76.8152C17.6128 76.8152 24.9287 76.8152 26.4964 76.8152C27.5416 76.8152 27.5416 78.3478 27.5416 78.3478V81.9239M38.5 38.4615L61 23L84 38.4615M38.5 38.4615L36 40L31.5 35L61 15L91 35L86.5 40L84 38.4615M38.5 38.4615V69.5H52M84 38.4615V69.5H69.5M52 69.5V47H69.5V69.5M52 69.5H69.5" stroke="url(#paint0_linear_1872_12300)" stroke-width="3"/>
<defs>
<linearGradient id="paint0_linear_1872_12300" x1="29.6318" y1="14.7104" x2="91.4969" y2="86.9925" gradientUnits="userSpaceOnUse">
<stop stop-color="#6B9B3C"/>
<stop offset="1" stop-color="#396D05"/>
</linearGradient>
</defs>
</svg>
