<svg width="124" height="124" viewBox="0 0 124 124" fill="none" xmlns="http://www.w3.org/2000/svg">
<rect width="124" height="124" fill="white"/>
<path d="M30.5 42.7957C30.5 42.7957 36 40.7742 36 38.2473C36 34.4974 36 28.6452 36 28.6452M30.5 42.7957C30.5 42.7957 19.5 39.309 19.5 33.6989C19.5 29.1505 19.5 26.6237 19.5 22.0753C19.5 18.5613 21.5235 15 25 15C28 15 30 15 33 15C36 15 36 19.043 36 19.043V20.0538M30.5 42.7957V90.8064M36 28.6452H56M36 28.6452V20.0538M56 28.6452V20.0538M56 28.6452V36.2258M56 20.0538H36M56 20.0538C56 20.0538 57.1193 17.5269 58.5 17.5269C61.5 17.5269 65 17.5269 68 17.5269C69.3807 17.5269 70.5 20.0538 70.5 20.0538M70.5 20.0538V28.6452M70.5 20.0538H92M70.5 28.6452V36.2258M70.5 28.6452H92M70.5 36.2258H56M70.5 36.2258L71.9153 55.9355M70.5 36.2258L54.4274 55.9355M56 36.2258L71.9153 55.9355M56 36.2258L54.4274 55.9355M92 20.0538V28.6452M92 20.0538C92 20.0538 92.3614 17.5269 93.5 17.5269C95 17.5269 96.5 17.5269 98 17.5269C99.1386 17.5269 99.5 20.0538 99.5 20.0538V28.6452C99.5 28.6452 99.1386 31.172 98 31.172C97 31.172 95.75 31.172 95.75 31.172M92 28.6452C92 28.6452 92.3614 31.172 93.5 31.172C94.5 31.172 95.75 31.172 95.75 31.172M51 98.8925H75M51 98.8925L52.7137 77.414M51 98.8925L73.4577 77.414M51 98.8925H39M75 98.8925L73.4577 77.414M75 98.8925L52.7137 77.414M75 98.8925H88.5M71.9153 55.9355L73.4577 77.414M71.9153 55.9355L52.7137 77.414M54.4274 55.9355L73.4577 77.414M54.4274 55.9355L52.7137 77.414M30.5 90.8064C30.5 90.8064 34 90.8064 36 90.8064C37.4081 90.8064 39 92.828 39 92.828V98.8925M30.5 90.8064C30.5 90.8064 27 90.8064 25 90.8064C23.5919 90.8064 22 92.828 22 92.828V98.8925M39 98.8925H22M22 98.8925H16.5C16.5 98.8925 15 98.8925 15 100.409C15 102.935 15 105.462 15 107.484C15 109 16.5 109 16.5 109C16.5 109 102.5 109 108 109C109 109 109 107.484 109 107.484V100.409C109 100.409 109 98.8925 108 98.8925C106.5 98.8925 103.5 98.8925 103.5 98.8925M95.75 31.172V74.129M95.75 74.129C95.75 74.129 94.5 74.129 93.5 74.129C91 74.129 91 77.414 91 77.414V90.8064M95.75 74.129C95.75 74.129 97 74.129 98 74.129C100.5 74.129 100.5 77.414 100.5 77.414V90.8064M91 90.8064H100.5M91 90.8064C91 90.8064 90 90.8065 89.5 90.8064C88.5 90.8064 88.5 92.3226 88.5 92.3226V98.8925M100.5 90.8064C100.5 90.8064 101.5 90.8064 102 90.8064C103.5 90.8064 103.5 92.3226 103.5 92.3226V98.8925M88.5 98.8925H103.5" stroke="url(#paint0_linear_1872_12294)" stroke-width="3"/>
<defs>
<linearGradient id="paint0_linear_1872_12294" x1="14.5" y1="14.4946" x2="109.527" y2="110.511" gradientUnits="userSpaceOnUse">
<stop stop-color="#6B9B3C"/>
<stop offset="1" stop-color="#396D05"/>
</linearGradient>
</defs>
</svg>
