<svg width="124" height="124" viewBox="0 0 124 124" fill="none" xmlns="http://www.w3.org/2000/svg">
<rect width="124" height="124" fill="white"/>
<path d="M40.2804 96.5343L39.4901 97.8092L40.2804 96.5343ZM28.4729 85.3734L29.7006 84.5116L29.7006 84.5116L28.4729 85.3734ZM38.3894 29.1343L37.5305 27.9045L38.3894 29.1343ZM53.3021 22.6849L53.6088 24.1532L53.6088 24.1532L53.3021 22.6849ZM69.5349 23.6501C70.1933 23.1473 70.3194 22.206 69.8166 21.5476L61.6232 10.8183C61.1204 10.1599 60.1791 10.0337 59.5207 10.5365C58.8623 11.0393 58.7361 11.9806 59.2389 12.639L66.522 22.1762L56.9848 29.4592C56.3264 29.962 56.2003 30.9034 56.7031 31.5618C57.2058 32.2202 58.1472 32.3463 58.8056 31.8435L69.5349 23.6501ZM101.169 53.6759L99.7036 53.9956L101.169 53.6759ZM22.8668 69.5078C22.1696 69.0603 21.2417 69.2628 20.7942 69.9599L13.5023 81.3211C13.0548 82.0183 13.2572 82.9462 13.9544 83.3937C14.6516 83.8412 15.5795 83.6388 16.027 82.9416L22.5087 72.8427L32.6076 79.3245C33.3048 79.772 34.2327 79.5695 34.6802 78.8723C35.1276 78.1752 34.9252 77.2472 34.228 76.7998L22.8668 69.5078ZM94.3969 84.1133C94.579 84.9215 95.3817 85.4291 96.1899 85.2471L109.36 82.2806C110.168 82.0986 110.676 81.2959 110.494 80.4877C110.312 79.6795 109.509 79.1719 108.701 79.3539L96.994 81.9908L94.3572 70.2841C94.1751 69.4759 93.3724 68.9683 92.5642 69.1503C91.756 69.3324 91.2485 70.1351 91.4305 70.9433L94.3969 84.1133ZM54.8617 100.511C49.8147 99.621 45.1699 97.8007 41.0708 95.2594L39.4901 97.8092C43.9082 100.548 48.9118 102.508 54.3407 103.465L54.8617 100.511ZM41.0708 95.2594C36.5564 92.4606 32.7009 88.7855 29.7006 84.5116L27.2452 86.2353C30.4748 90.8358 34.6262 94.7937 39.4901 97.8092L41.0708 95.2594ZM39.2483 30.364C43.5294 27.374 48.4093 25.2391 53.6088 24.1532L52.9954 21.2166C47.3935 22.3866 42.1388 24.686 37.5305 27.9045L39.2483 30.364ZM53.6088 24.1532C58.2913 23.1752 63.4284 23.275 68.4253 23.9447L68.8237 20.9713C63.6254 20.2746 58.1224 20.1457 52.9954 21.2166L53.6088 24.1532ZM69.6169 100.293C64.8959 101.279 59.9086 101.401 54.8617 100.511L54.3407 103.465C59.7696 104.423 65.1418 104.292 70.2303 103.229L69.6169 100.293ZM93.5251 39.9345C96.4731 44.1339 98.5939 48.9092 99.7036 53.9956L102.635 53.3562C101.439 47.874 99.1538 42.7311 95.9805 38.2108L93.5251 39.9345ZM99.7036 53.9956C100.749 58.7875 100.898 63.8585 99.9926 68.9904L102.947 69.5114C103.921 63.9881 103.762 58.5229 102.635 53.3562L99.7036 53.9956ZM28.6332 41.464C31.4156 37.0638 35.0418 33.3019 39.2483 30.364L37.5305 27.9045C33.0025 31.0669 29.0964 35.1181 26.0976 39.8606L28.6332 41.464ZM29.7006 84.5116C26.7526 80.3122 24.6317 75.5369 23.5221 70.4504L20.5911 71.0899C21.787 76.572 24.0719 81.7149 27.2452 86.2353L29.7006 84.5116ZM99.9926 68.9904C99.0877 74.1224 97.2137 78.8367 94.5925 82.9821L97.1281 84.5854C99.9544 80.1158 101.973 75.0346 102.947 69.5114L99.9926 68.9904Z" fill="url(#paint0_linear_1872_12301)"/>
<path d="M72.4386 40L47 65.1778H56.1579L49.5439 84L76 58.8222H66.3333L72.4386 40Z" stroke="url(#paint1_linear_1872_12301)" stroke-width="3"/>
<defs>
<linearGradient id="paint0_linear_1872_12301" x1="20.6558" y1="16.3802" x2="109.802" y2="106.992" gradientUnits="userSpaceOnUse">
<stop stop-color="#6B9B3C"/>
<stop offset="1" stop-color="#396D05"/>
</linearGradient>
<linearGradient id="paint1_linear_1872_12301" x1="47" y1="40" x2="76" y2="84" gradientUnits="userSpaceOnUse">
<stop stop-color="#6B9B3C"/>
<stop offset="1" stop-color="#396D05"/>
</linearGradient>
</defs>
</svg>
