<svg width="124" height="124" viewBox="0 0 124 124" fill="none" xmlns="http://www.w3.org/2000/svg">
<rect width="124" height="124" fill="white"/>
<path d="M63.9406 23.7271V36.7511M63.9406 23.7271C63.9406 23.7271 63.9406 23.7271 69.9952 18.7178C76.0497 13.7085 86.6452 15.2113 86.6452 15.2113C86.6452 15.2113 78.7552 29.6319 69.9952 34.2465C67.7325 35.4385 63.9406 36.7511 63.9406 36.7511M63.9406 23.7271C63.9406 23.7271 63.9406 23.7271 57.8861 18.7178C51.8316 13.7086 41.7406 15.2113 41.7406 15.2113C41.7406 15.2113 49.2575 29.6574 57.8861 34.2465C60.144 35.4474 63.9406 36.7511 63.9406 36.7511M63.9406 36.7511V50.25M63.9406 62.6637C63.9406 62.6637 67.7325 61.3511 69.9952 60.1591C78.7552 55.5445 86.6452 41.124 86.6452 41.124C86.6452 41.124 76.0497 39.6212 69.9952 44.6304L63.9406 50.25M63.9406 62.6637C63.9406 62.6637 60.144 61.36 57.8861 60.1591C49.2575 55.5701 41.7406 41.124 41.7406 41.124C41.7406 41.124 51.8316 39.6212 57.8861 44.6304L63.9406 50.25M63.9406 62.6637V57.5931V50.25M63.9406 62.6637C63.9406 62.6637 63.9406 65.3728 63.9406 67.1087M63.9406 67.1087C46.8765 67.1087 41.7406 77.837 41.7406 77.837M63.9406 67.1087C75.0771 67.1087 81.3658 69.663 87.6366 76.3043C90.1832 79.0015 92.6009 84.2228 92.6009 84.2228M41.7406 77.837C50.0119 77.837 56.8052 82.4348 56.8052 82.4348C56.8052 82.4348 65.418 82.4348 69.9952 82.4348C79.4014 82.4348 79.5676 94.1848 69.9952 94.1848M41.7406 77.837C33.8123 77.837 27.5416 81.9239 27.5416 81.9239M69.9952 94.1848C62.4444 94.1848 55.2375 94.1848 55.2375 94.1848M69.9952 94.1848C72.24 94.1848 80.3206 94.1848 80.3206 94.1848L92.6009 84.2228M27.5416 103.38L41.7406 109C41.7406 109 69.9952 109 80.3206 109C87.114 109 90.2494 105.424 90.2494 105.424C90.2494 105.424 95.4211 100.245 106.449 88.5652C112.72 81.9239 106.401 74.8031 98.6104 79.8804C93.9073 82.9457 92.6009 84.2228 92.6009 84.2228M27.5416 103.38V81.9239M27.5416 103.38V106.446C27.5416 106.446 27.5416 107.978 26.4964 107.978C22.4149 107.978 20.1266 107.978 16.0451 107.978C15 107.978 15 106.446 15 106.446V78.3478C15 78.3478 15 76.8152 16.0451 76.8152C17.6128 76.8152 24.9287 76.8152 26.4964 76.8152C27.5416 76.8152 27.5416 78.3478 27.5416 78.3478V81.9239" stroke="url(#paint0_linear_1872_12299)" stroke-width="3"/>
<defs>
<linearGradient id="paint0_linear_1872_12299" x1="29.6318" y1="14.7104" x2="91.4969" y2="86.9925" gradientUnits="userSpaceOnUse">
<stop stop-color="#6B9B3C"/>
<stop offset="1" stop-color="#396D05"/>
</linearGradient>
</defs>
</svg>
