<svg width="124" height="124" viewBox="0 0 124 124" fill="none" xmlns="http://www.w3.org/2000/svg">
<rect width="124" height="124" fill="white"/>
<path d="M40.3217 22.7744H34.4957C34.4957 22.7744 31 22.7744 31 27.4353C31 39.6701 31 53.0701 31 65.3049C31 69.3831 34.4957 69.3831 34.4957 69.3831H46.5848M80.5217 22.7744H86.3478C86.3478 22.7744 89.2609 22.7744 89.2609 27.4353C89.2609 42.2243 89.2609 51.9049 89.2609 65.3049C89.2609 69.3831 86.3478 69.3831 86.3478 69.3831H73.0935M73.0935 69.3831V67.0527C73.0935 67.0527 73.0935 65.3049 71.2 65.3049C69.4522 65.3049 57.3517 65.3049 48.4783 65.3049C46.5848 65.3049 46.5848 67.0527 46.5848 67.0527V69.3831M73.0935 69.3831V71.7136C73.0935 71.7136 73.0935 74.044 71.2 74.044C66.7633 74.044 59.8391 74.044 59.8391 74.044M46.5848 69.3831V71.7136C46.5848 71.7136 46.5848 74.044 48.4783 74.044C52.915 74.044 59.8391 74.044 59.8391 74.044M59.8391 74.044V81.0353C59.8391 81.0353 59.8391 83.9483 62.4609 83.9483C70.4242 83.9483 74.8889 83.9483 82.8522 83.9483C85.1826 83.9483 85.1826 86.2788 85.1826 86.2788V91.5223C85.1826 91.5223 85.1826 93.2701 82.8522 93.2701C66.243 93.2701 56.9309 93.2701 40.3217 93.2701C38.5739 93.2701 38.5739 94.4353 38.5739 94.4353V99.6788C38.5739 99.6788 38.5739 102.009 40.3217 102.009C57.841 102.009 67.6633 102.009 85.1826 102.009M85.1826 102.009C84.8613 98.9651 87.513 95.0179 91.5913 95.0179C95.6696 95.0179 98 98.9482 98 102.009C98 105.07 96.2522 109.001 91.5913 109.001C86.9304 109.001 84.8613 105.053 85.1826 102.009Z" stroke="url(#paint0_linear_1872_12302)" stroke-width="3"/>
<path d="M47.4768 28.6002V17.5306C47.4768 15.2002 45.729 15.2002 45.729 15.2002H41.0681C41.0681 15.2002 39.3199 15.2002 39.3203 17.5306C39.3211 21.8536 39.3216 24.2773 39.3203 28.6002C39.3198 30.348 41.0681 30.348 41.0681 30.348H45.729C45.729 30.348 47.4768 30.348 47.4768 28.6002Z" stroke="url(#paint1_linear_1872_12302)" stroke-width="3"/>
<path d="M80.7737 28.6002V17.5306C80.7737 15.2002 79.0259 15.2002 79.0259 15.2002H74.365C74.365 15.2002 72.617 15.2002 72.6172 17.5306C72.6175 21.8536 72.6183 24.2773 72.6172 28.6002C72.6167 30.348 74.365 30.348 74.365 30.348H79.0259C79.0259 30.348 80.7737 30.348 80.7737 28.6002Z" stroke="url(#paint2_linear_1872_12302)" stroke-width="3"/>
<defs>
<linearGradient id="paint0_linear_1872_12302" x1="31" y1="23.0005" x2="98" y2="109.001" gradientUnits="userSpaceOnUse">
<stop stop-color="#6B9B3C"/>
<stop offset="1" stop-color="#396D05"/>
</linearGradient>
<linearGradient id="paint1_linear_1872_12302" x1="38.998" y1="15.0002" x2="47.498" y2="31.5002" gradientUnits="userSpaceOnUse">
<stop stop-color="#6B9B3C"/>
<stop offset="1" stop-color="#396D05"/>
</linearGradient>
<linearGradient id="paint2_linear_1872_12302" x1="73" y1="15.0002" x2="80.5" y2="30.0002" gradientUnits="userSpaceOnUse">
<stop stop-color="#6B9B3C"/>
<stop offset="1" stop-color="#396D05"/>
</linearGradient>
</defs>
</svg>
